G04 #@! TF.GenerationSoftware,KiCad,Pcbnew,9.0.0*
G04 #@! TF.CreationDate,2025-04-22T01:26:24+02:00*
G04 #@! TF.ProjectId,takt11800,74616b74-3131-4383-9030-2e6b69636164,1.0.0*
G04 #@! TF.SameCoordinates,Original*
G04 #@! TF.FileFunction,Other,User*
%FSLAX46Y46*%
G04 Gerber Fmt 4.6, Leading zero omitted, Abs format (unit mm)*
G04 Created by KiCad (PCBNEW 9.0.0) date 2025-04-22 01:26:24*
%MOMM*%
%LPD*%
G01*
G04 APERTURE LIST*
%ADD10C,0.050000*%
G04 APERTURE END LIST*
D10*
X30960000Y-116370000D02*
G75*
G02*
X24060000Y-116370000I-3450000J0D01*
G01*
X24060000Y-116370000D02*
G75*
G02*
X30960000Y-116370000I3450000J0D01*
G01*
X321350000Y-117440000D02*
G75*
G02*
X314450000Y-117440000I-3450000J0D01*
G01*
X314450000Y-117440000D02*
G75*
G02*
X321350000Y-117440000I3450000J0D01*
G01*
X303650000Y-117340000D02*
G75*
G02*
X296750000Y-117340000I-3450000J0D01*
G01*
X296750000Y-117340000D02*
G75*
G02*
X303650000Y-117340000I3450000J0D01*
G01*
X122380000Y-116030000D02*
G75*
G02*
X115480000Y-116030000I-3450000J0D01*
G01*
X115480000Y-116030000D02*
G75*
G02*
X122380000Y-116030000I3450000J0D01*
G01*
X213140000Y-116180000D02*
G75*
G02*
X206240000Y-116180000I-3450000J0D01*
G01*
X206240000Y-116180000D02*
G75*
G02*
X213140000Y-116180000I3450000J0D01*
G01*
X301430000Y-101980000D02*
X302370000Y-101980000D01*
X301430000Y-103840000D02*
X301430000Y-101980000D01*
X302370000Y-101980000D02*
X302370000Y-103840000D01*
X302370000Y-103840000D02*
X301430000Y-103840000D01*
X270830000Y-99790000D02*
X272650000Y-99790000D01*
X270830000Y-100710000D02*
X270830000Y-99790000D01*
X272650000Y-99790000D02*
X272650000Y-100710000D01*
X272650000Y-100710000D02*
X270830000Y-100710000D01*
X298760000Y-97180000D02*
X299680000Y-97180000D01*
X298760000Y-99000000D02*
X298760000Y-97180000D01*
X299680000Y-97180000D02*
X299680000Y-99000000D01*
X299680000Y-99000000D02*
X298760000Y-99000000D01*
X301410000Y-93200000D02*
X302350000Y-93200000D01*
X301410000Y-95060000D02*
X301410000Y-93200000D01*
X302350000Y-93200000D02*
X302350000Y-95060000D01*
X302350000Y-95060000D02*
X301410000Y-95060000D01*
X294077500Y-93620000D02*
X294077500Y-97020000D01*
X294077500Y-97020000D02*
X298177500Y-97020000D01*
X298177500Y-93620000D02*
X294077500Y-93620000D01*
X298177500Y-97020000D02*
X298177500Y-93620000D01*
X270770000Y-91847500D02*
X272170000Y-91847500D01*
X270770000Y-94997500D02*
X270770000Y-91847500D01*
X270770000Y-94997500D02*
X270770000Y-98147500D01*
X270770000Y-98147500D02*
X272170000Y-98147500D01*
X272170000Y-91247500D02*
X272770000Y-91247500D01*
X272170000Y-91847500D02*
X272170000Y-91247500D01*
X272170000Y-98147500D02*
X272170000Y-98747500D01*
X272170000Y-98747500D02*
X272770000Y-98747500D01*
X272770000Y-89847500D02*
X275920000Y-89847500D01*
X272770000Y-91247500D02*
X272770000Y-89847500D01*
X272770000Y-98747500D02*
X272770000Y-100147500D01*
X272770000Y-100147500D02*
X275920000Y-100147500D01*
X279070000Y-89847500D02*
X275920000Y-89847500D01*
X279070000Y-91247500D02*
X279070000Y-89847500D01*
X279070000Y-98747500D02*
X279070000Y-100147500D01*
X279070000Y-100147500D02*
X275920000Y-100147500D01*
X279670000Y-91247500D02*
X279070000Y-91247500D01*
X279670000Y-91847500D02*
X279670000Y-91247500D01*
X279670000Y-98147500D02*
X279670000Y-98747500D01*
X279670000Y-98747500D02*
X279070000Y-98747500D01*
X281070000Y-91847500D02*
X279670000Y-91847500D01*
X281070000Y-94997500D02*
X281070000Y-91847500D01*
X281070000Y-94997500D02*
X281070000Y-98147500D01*
X281070000Y-98147500D02*
X279670000Y-98147500D01*
X279153500Y-99254500D02*
X280973500Y-99254500D01*
X279153500Y-100174500D02*
X279153500Y-99254500D01*
X280973500Y-99254500D02*
X280973500Y-100174500D01*
X280973500Y-100174500D02*
X279153500Y-100174500D01*
X270263500Y-98234500D02*
X272083500Y-98234500D01*
X270263500Y-99154500D02*
X270263500Y-98234500D01*
X272083500Y-98234500D02*
X272083500Y-99154500D01*
X272083500Y-99154500D02*
X270263500Y-99154500D01*
X302530000Y-103840000D02*
X302530000Y-93200000D01*
X311950000Y-93200000D02*
X302530000Y-93200000D01*
X311950000Y-103840000D02*
X302530000Y-103840000D01*
X311950000Y-103840000D02*
X311950000Y-93200000D01*
X268170000Y-92510000D02*
X269990000Y-92510000D01*
X268170000Y-93430000D02*
X268170000Y-92510000D01*
X269990000Y-92510000D02*
X269990000Y-93430000D01*
X269990000Y-93430000D02*
X268170000Y-93430000D01*
X279760000Y-90840000D02*
X281580000Y-90840000D01*
X279760000Y-91760000D02*
X279760000Y-90840000D01*
X281580000Y-90840000D02*
X281580000Y-91760000D01*
X281580000Y-91760000D02*
X279760000Y-91760000D01*
X320660000Y-72040000D02*
X320660000Y-75040000D01*
X320660000Y-75040000D02*
X325660000Y-75040000D01*
X325660000Y-72040000D02*
X320660000Y-72040000D01*
X325660000Y-75040000D02*
X325660000Y-72040000D01*
X294390000Y-100540000D02*
X294390000Y-103940000D01*
X294390000Y-103940000D02*
X298230000Y-103940000D01*
X298230000Y-100540000D02*
X294390000Y-100540000D01*
X298230000Y-103940000D02*
X298230000Y-100540000D01*
X264390000Y-91960000D02*
X266250000Y-91960000D01*
X264390000Y-92900000D02*
X264390000Y-91960000D01*
X266250000Y-91960000D02*
X266250000Y-92900000D01*
X266250000Y-92900000D02*
X264390000Y-92900000D01*
X271960000Y-102105000D02*
X281460000Y-102105000D01*
X271960000Y-111105000D02*
X271960000Y-102105000D01*
X271960000Y-111105000D02*
X281460000Y-111105000D01*
X281460000Y-111105000D02*
X281460000Y-102105000D01*
X279753500Y-98234500D02*
X281573500Y-98234500D01*
X279753500Y-99154500D02*
X279753500Y-98234500D01*
X281573500Y-98234500D02*
X281573500Y-99154500D01*
X281573500Y-99154500D02*
X279753500Y-99154500D01*
X294760000Y-97830000D02*
X297720000Y-97830000D01*
X294760000Y-99290000D02*
X294760000Y-97830000D01*
X297720000Y-97830000D02*
X297720000Y-99290000D01*
X297720000Y-99290000D02*
X294760000Y-99290000D01*
X268520000Y-93570000D02*
X270340000Y-93570000D01*
X268520000Y-94490000D02*
X268520000Y-93570000D01*
X270340000Y-93570000D02*
X270340000Y-94490000D01*
X270340000Y-94490000D02*
X268520000Y-94490000D01*
X279170000Y-89810000D02*
X280990000Y-89810000D01*
X279170000Y-90730000D02*
X279170000Y-89810000D01*
X280990000Y-89810000D02*
X280990000Y-90730000D01*
X280990000Y-90730000D02*
X279170000Y-90730000D01*
X307270000Y-151450000D02*
X310270000Y-151450000D01*
X307270000Y-162450000D02*
X307270000Y-151450000D01*
X310270000Y-151450000D02*
X310270000Y-162450000D01*
X310270000Y-162450000D02*
X307270000Y-162450000D01*
X293160000Y-100860000D02*
X294080000Y-100860000D01*
X293160000Y-102680000D02*
X293160000Y-100860000D01*
X294080000Y-100860000D02*
X294080000Y-102680000D01*
X294080000Y-102680000D02*
X293160000Y-102680000D01*
X264400000Y-93020000D02*
X266260000Y-93020000D01*
X264400000Y-93960000D02*
X264400000Y-93020000D01*
X266260000Y-93020000D02*
X266260000Y-93960000D01*
X266260000Y-93960000D02*
X264400000Y-93960000D01*
M02*
