G04 #@! TF.GenerationSoftware,KiCad,Pcbnew,9.0.0*
G04 #@! TF.CreationDate,2025-04-22T01:26:24+02:00*
G04 #@! TF.ProjectId,takt11800,74616b74-3131-4383-9030-2e6b69636164,1.0.0*
G04 #@! TF.SameCoordinates,Original*
G04 #@! TF.FileFunction,AssemblyDrawing,Top*
%FSLAX46Y46*%
G04 Gerber Fmt 4.6, Leading zero omitted, Abs format (unit mm)*
G04 Created by KiCad (PCBNEW 9.0.0) date 2025-04-22 01:26:24*
%MOMM*%
%LPD*%
G01*
G04 APERTURE LIST*
%ADD10C,0.150000*%
%ADD11C,0.040000*%
%ADD12C,0.050000*%
%ADD13C,0.100000*%
G04 APERTURE END LIST*
D10*
X296227142Y-89944819D02*
X295750952Y-89944819D01*
X295750952Y-89944819D02*
X295750952Y-88944819D01*
X296560476Y-89421009D02*
X296893809Y-89421009D01*
X297036666Y-89944819D02*
X296560476Y-89944819D01*
X296560476Y-89944819D02*
X296560476Y-88944819D01*
X296560476Y-88944819D02*
X297036666Y-88944819D01*
X297465238Y-89944819D02*
X297465238Y-88944819D01*
X297465238Y-88944819D02*
X297703333Y-88944819D01*
X297703333Y-88944819D02*
X297846190Y-88992438D01*
X297846190Y-88992438D02*
X297941428Y-89087676D01*
X297941428Y-89087676D02*
X297989047Y-89182914D01*
X297989047Y-89182914D02*
X298036666Y-89373390D01*
X298036666Y-89373390D02*
X298036666Y-89516247D01*
X298036666Y-89516247D02*
X297989047Y-89706723D01*
X297989047Y-89706723D02*
X297941428Y-89801961D01*
X297941428Y-89801961D02*
X297846190Y-89897200D01*
X297846190Y-89897200D02*
X297703333Y-89944819D01*
X297703333Y-89944819D02*
X297465238Y-89944819D01*
X306317142Y-89904819D02*
X305840952Y-89904819D01*
X305840952Y-89904819D02*
X305840952Y-88904819D01*
X306650476Y-89381009D02*
X306983809Y-89381009D01*
X307126666Y-89904819D02*
X306650476Y-89904819D01*
X306650476Y-89904819D02*
X306650476Y-88904819D01*
X306650476Y-88904819D02*
X307126666Y-88904819D01*
X307555238Y-89904819D02*
X307555238Y-88904819D01*
X307555238Y-88904819D02*
X307793333Y-88904819D01*
X307793333Y-88904819D02*
X307936190Y-88952438D01*
X307936190Y-88952438D02*
X308031428Y-89047676D01*
X308031428Y-89047676D02*
X308079047Y-89142914D01*
X308079047Y-89142914D02*
X308126666Y-89333390D01*
X308126666Y-89333390D02*
X308126666Y-89476247D01*
X308126666Y-89476247D02*
X308079047Y-89666723D01*
X308079047Y-89666723D02*
X308031428Y-89761961D01*
X308031428Y-89761961D02*
X307936190Y-89857200D01*
X307936190Y-89857200D02*
X307793333Y-89904819D01*
X307793333Y-89904819D02*
X307555238Y-89904819D01*
X316477142Y-89904819D02*
X316000952Y-89904819D01*
X316000952Y-89904819D02*
X316000952Y-88904819D01*
X316810476Y-89381009D02*
X317143809Y-89381009D01*
X317286666Y-89904819D02*
X316810476Y-89904819D01*
X316810476Y-89904819D02*
X316810476Y-88904819D01*
X316810476Y-88904819D02*
X317286666Y-88904819D01*
X317715238Y-89904819D02*
X317715238Y-88904819D01*
X317715238Y-88904819D02*
X317953333Y-88904819D01*
X317953333Y-88904819D02*
X318096190Y-88952438D01*
X318096190Y-88952438D02*
X318191428Y-89047676D01*
X318191428Y-89047676D02*
X318239047Y-89142914D01*
X318239047Y-89142914D02*
X318286666Y-89333390D01*
X318286666Y-89333390D02*
X318286666Y-89476247D01*
X318286666Y-89476247D02*
X318239047Y-89666723D01*
X318239047Y-89666723D02*
X318191428Y-89761961D01*
X318191428Y-89761961D02*
X318096190Y-89857200D01*
X318096190Y-89857200D02*
X317953333Y-89904819D01*
X317953333Y-89904819D02*
X317715238Y-89904819D01*
X168466669Y-213547196D02*
X168609526Y-213594815D01*
X168609526Y-213594815D02*
X168847621Y-213594815D01*
X168847621Y-213594815D02*
X168942859Y-213547196D01*
X168942859Y-213547196D02*
X168990478Y-213499576D01*
X168990478Y-213499576D02*
X169038097Y-213404338D01*
X169038097Y-213404338D02*
X169038097Y-213309100D01*
X169038097Y-213309100D02*
X168990478Y-213213862D01*
X168990478Y-213213862D02*
X168942859Y-213166243D01*
X168942859Y-213166243D02*
X168847621Y-213118624D01*
X168847621Y-213118624D02*
X168657145Y-213071005D01*
X168657145Y-213071005D02*
X168561907Y-213023386D01*
X168561907Y-213023386D02*
X168514288Y-212975767D01*
X168514288Y-212975767D02*
X168466669Y-212880529D01*
X168466669Y-212880529D02*
X168466669Y-212785291D01*
X168466669Y-212785291D02*
X168514288Y-212690053D01*
X168514288Y-212690053D02*
X168561907Y-212642434D01*
X168561907Y-212642434D02*
X168657145Y-212594815D01*
X168657145Y-212594815D02*
X168895240Y-212594815D01*
X168895240Y-212594815D02*
X169038097Y-212642434D01*
X169371431Y-212594815D02*
X169609526Y-213594815D01*
X169609526Y-213594815D02*
X169800002Y-212880529D01*
X169800002Y-212880529D02*
X169990478Y-213594815D01*
X169990478Y-213594815D02*
X170228574Y-212594815D01*
X171133335Y-213594815D02*
X170561907Y-213594815D01*
X170847621Y-213594815D02*
X170847621Y-212594815D01*
X170847621Y-212594815D02*
X170752383Y-212737672D01*
X170752383Y-212737672D02*
X170657145Y-212832910D01*
X170657145Y-212832910D02*
X170561907Y-212880529D01*
X290464819Y-78293333D02*
X291179104Y-78293333D01*
X291179104Y-78293333D02*
X291321961Y-78340952D01*
X291321961Y-78340952D02*
X291417200Y-78436190D01*
X291417200Y-78436190D02*
X291464819Y-78579047D01*
X291464819Y-78579047D02*
X291464819Y-78674285D01*
X291464819Y-77293333D02*
X291464819Y-77864761D01*
X291464819Y-77579047D02*
X290464819Y-77579047D01*
X290464819Y-77579047D02*
X290607676Y-77674285D01*
X290607676Y-77674285D02*
X290702914Y-77769523D01*
X290702914Y-77769523D02*
X290750533Y-77864761D01*
D11*
X174808200Y-218993332D02*
X174684391Y-219079999D01*
X174808200Y-219141904D02*
X174548200Y-219141904D01*
X174548200Y-219141904D02*
X174548200Y-219042856D01*
X174548200Y-219042856D02*
X174560581Y-219018094D01*
X174560581Y-219018094D02*
X174572962Y-219005713D01*
X174572962Y-219005713D02*
X174597724Y-218993332D01*
X174597724Y-218993332D02*
X174634867Y-218993332D01*
X174634867Y-218993332D02*
X174659629Y-219005713D01*
X174659629Y-219005713D02*
X174672010Y-219018094D01*
X174672010Y-219018094D02*
X174684391Y-219042856D01*
X174684391Y-219042856D02*
X174684391Y-219141904D01*
X174548200Y-218770475D02*
X174548200Y-218819999D01*
X174548200Y-218819999D02*
X174560581Y-218844761D01*
X174560581Y-218844761D02*
X174572962Y-218857142D01*
X174572962Y-218857142D02*
X174610105Y-218881904D01*
X174610105Y-218881904D02*
X174659629Y-218894285D01*
X174659629Y-218894285D02*
X174758677Y-218894285D01*
X174758677Y-218894285D02*
X174783439Y-218881904D01*
X174783439Y-218881904D02*
X174795820Y-218869523D01*
X174795820Y-218869523D02*
X174808200Y-218844761D01*
X174808200Y-218844761D02*
X174808200Y-218795237D01*
X174808200Y-218795237D02*
X174795820Y-218770475D01*
X174795820Y-218770475D02*
X174783439Y-218758094D01*
X174783439Y-218758094D02*
X174758677Y-218745713D01*
X174758677Y-218745713D02*
X174696772Y-218745713D01*
X174696772Y-218745713D02*
X174672010Y-218758094D01*
X174672010Y-218758094D02*
X174659629Y-218770475D01*
X174659629Y-218770475D02*
X174647248Y-218795237D01*
X174647248Y-218795237D02*
X174647248Y-218844761D01*
X174647248Y-218844761D02*
X174659629Y-218869523D01*
X174659629Y-218869523D02*
X174672010Y-218881904D01*
X174672010Y-218881904D02*
X174696772Y-218894285D01*
D10*
X263102380Y-96674819D02*
X263292856Y-96674819D01*
X263292856Y-96674819D02*
X263388094Y-96722438D01*
X263388094Y-96722438D02*
X263483332Y-96817676D01*
X263483332Y-96817676D02*
X263530951Y-97008152D01*
X263530951Y-97008152D02*
X263530951Y-97341485D01*
X263530951Y-97341485D02*
X263483332Y-97531961D01*
X263483332Y-97531961D02*
X263388094Y-97627200D01*
X263388094Y-97627200D02*
X263292856Y-97674819D01*
X263292856Y-97674819D02*
X263102380Y-97674819D01*
X263102380Y-97674819D02*
X263007142Y-97627200D01*
X263007142Y-97627200D02*
X262911904Y-97531961D01*
X262911904Y-97531961D02*
X262864285Y-97341485D01*
X262864285Y-97341485D02*
X262864285Y-97008152D01*
X262864285Y-97008152D02*
X262911904Y-96817676D01*
X262911904Y-96817676D02*
X263007142Y-96722438D01*
X263007142Y-96722438D02*
X263102380Y-96674819D01*
X263911904Y-97627200D02*
X264054761Y-97674819D01*
X264054761Y-97674819D02*
X264292856Y-97674819D01*
X264292856Y-97674819D02*
X264388094Y-97627200D01*
X264388094Y-97627200D02*
X264435713Y-97579580D01*
X264435713Y-97579580D02*
X264483332Y-97484342D01*
X264483332Y-97484342D02*
X264483332Y-97389104D01*
X264483332Y-97389104D02*
X264435713Y-97293866D01*
X264435713Y-97293866D02*
X264388094Y-97246247D01*
X264388094Y-97246247D02*
X264292856Y-97198628D01*
X264292856Y-97198628D02*
X264102380Y-97151009D01*
X264102380Y-97151009D02*
X264007142Y-97103390D01*
X264007142Y-97103390D02*
X263959523Y-97055771D01*
X263959523Y-97055771D02*
X263911904Y-96960533D01*
X263911904Y-96960533D02*
X263911904Y-96865295D01*
X263911904Y-96865295D02*
X263959523Y-96770057D01*
X263959523Y-96770057D02*
X264007142Y-96722438D01*
X264007142Y-96722438D02*
X264102380Y-96674819D01*
X264102380Y-96674819D02*
X264340475Y-96674819D01*
X264340475Y-96674819D02*
X264483332Y-96722438D01*
X264911904Y-97674819D02*
X264911904Y-96674819D01*
X264911904Y-97151009D02*
X265483332Y-97151009D01*
X265483332Y-97674819D02*
X265483332Y-96674819D01*
X265864285Y-96674819D02*
X266102380Y-97674819D01*
X266102380Y-97674819D02*
X266292856Y-96960533D01*
X266292856Y-96960533D02*
X266483332Y-97674819D01*
X266483332Y-97674819D02*
X266721428Y-96674819D01*
X267102380Y-97293866D02*
X267864285Y-97293866D01*
X268816665Y-97674819D02*
X268340475Y-97674819D01*
X268340475Y-97674819D02*
X268340475Y-96674819D01*
X269292856Y-97674819D02*
X269197618Y-97627200D01*
X269197618Y-97627200D02*
X269149999Y-97579580D01*
X269149999Y-97579580D02*
X269102380Y-97484342D01*
X269102380Y-97484342D02*
X269102380Y-97198628D01*
X269102380Y-97198628D02*
X269149999Y-97103390D01*
X269149999Y-97103390D02*
X269197618Y-97055771D01*
X269197618Y-97055771D02*
X269292856Y-97008152D01*
X269292856Y-97008152D02*
X269435713Y-97008152D01*
X269435713Y-97008152D02*
X269530951Y-97055771D01*
X269530951Y-97055771D02*
X269578570Y-97103390D01*
X269578570Y-97103390D02*
X269626189Y-97198628D01*
X269626189Y-97198628D02*
X269626189Y-97484342D01*
X269626189Y-97484342D02*
X269578570Y-97579580D01*
X269578570Y-97579580D02*
X269530951Y-97627200D01*
X269530951Y-97627200D02*
X269435713Y-97674819D01*
X269435713Y-97674819D02*
X269292856Y-97674819D01*
X270483332Y-97008152D02*
X270483332Y-97817676D01*
X270483332Y-97817676D02*
X270435713Y-97912914D01*
X270435713Y-97912914D02*
X270388094Y-97960533D01*
X270388094Y-97960533D02*
X270292856Y-98008152D01*
X270292856Y-98008152D02*
X270149999Y-98008152D01*
X270149999Y-98008152D02*
X270054761Y-97960533D01*
X270483332Y-97627200D02*
X270388094Y-97674819D01*
X270388094Y-97674819D02*
X270197618Y-97674819D01*
X270197618Y-97674819D02*
X270102380Y-97627200D01*
X270102380Y-97627200D02*
X270054761Y-97579580D01*
X270054761Y-97579580D02*
X270007142Y-97484342D01*
X270007142Y-97484342D02*
X270007142Y-97198628D01*
X270007142Y-97198628D02*
X270054761Y-97103390D01*
X270054761Y-97103390D02*
X270102380Y-97055771D01*
X270102380Y-97055771D02*
X270197618Y-97008152D01*
X270197618Y-97008152D02*
X270388094Y-97008152D01*
X270388094Y-97008152D02*
X270483332Y-97055771D01*
X271102380Y-97674819D02*
X271007142Y-97627200D01*
X271007142Y-97627200D02*
X270959523Y-97579580D01*
X270959523Y-97579580D02*
X270911904Y-97484342D01*
X270911904Y-97484342D02*
X270911904Y-97198628D01*
X270911904Y-97198628D02*
X270959523Y-97103390D01*
X270959523Y-97103390D02*
X271007142Y-97055771D01*
X271007142Y-97055771D02*
X271102380Y-97008152D01*
X271102380Y-97008152D02*
X271245237Y-97008152D01*
X271245237Y-97008152D02*
X271340475Y-97055771D01*
X271340475Y-97055771D02*
X271388094Y-97103390D01*
X271388094Y-97103390D02*
X271435713Y-97198628D01*
X271435713Y-97198628D02*
X271435713Y-97484342D01*
X271435713Y-97484342D02*
X271388094Y-97579580D01*
X271388094Y-97579580D02*
X271340475Y-97627200D01*
X271340475Y-97627200D02*
X271245237Y-97674819D01*
X271245237Y-97674819D02*
X271102380Y-97674819D01*
X271816666Y-96770057D02*
X271864285Y-96722438D01*
X271864285Y-96722438D02*
X271959523Y-96674819D01*
X271959523Y-96674819D02*
X272197618Y-96674819D01*
X272197618Y-96674819D02*
X272292856Y-96722438D01*
X272292856Y-96722438D02*
X272340475Y-96770057D01*
X272340475Y-96770057D02*
X272388094Y-96865295D01*
X272388094Y-96865295D02*
X272388094Y-96960533D01*
X272388094Y-96960533D02*
X272340475Y-97103390D01*
X272340475Y-97103390D02*
X271769047Y-97674819D01*
X271769047Y-97674819D02*
X272388094Y-97674819D01*
X272578571Y-97770057D02*
X273340475Y-97770057D01*
X273530952Y-96770057D02*
X273578571Y-96722438D01*
X273578571Y-96722438D02*
X273673809Y-96674819D01*
X273673809Y-96674819D02*
X273911904Y-96674819D01*
X273911904Y-96674819D02*
X274007142Y-96722438D01*
X274007142Y-96722438D02*
X274054761Y-96770057D01*
X274054761Y-96770057D02*
X274102380Y-96865295D01*
X274102380Y-96865295D02*
X274102380Y-96960533D01*
X274102380Y-96960533D02*
X274054761Y-97103390D01*
X274054761Y-97103390D02*
X273483333Y-97674819D01*
X273483333Y-97674819D02*
X274102380Y-97674819D01*
X274959523Y-97008152D02*
X274959523Y-97674819D01*
X274721428Y-96627200D02*
X274483333Y-97341485D01*
X274483333Y-97341485D02*
X275102380Y-97341485D01*
X275483333Y-97579580D02*
X275530952Y-97627200D01*
X275530952Y-97627200D02*
X275483333Y-97674819D01*
X275483333Y-97674819D02*
X275435714Y-97627200D01*
X275435714Y-97627200D02*
X275483333Y-97579580D01*
X275483333Y-97579580D02*
X275483333Y-97674819D01*
X275864285Y-96674819D02*
X276483332Y-96674819D01*
X276483332Y-96674819D02*
X276149999Y-97055771D01*
X276149999Y-97055771D02*
X276292856Y-97055771D01*
X276292856Y-97055771D02*
X276388094Y-97103390D01*
X276388094Y-97103390D02*
X276435713Y-97151009D01*
X276435713Y-97151009D02*
X276483332Y-97246247D01*
X276483332Y-97246247D02*
X276483332Y-97484342D01*
X276483332Y-97484342D02*
X276435713Y-97579580D01*
X276435713Y-97579580D02*
X276388094Y-97627200D01*
X276388094Y-97627200D02*
X276292856Y-97674819D01*
X276292856Y-97674819D02*
X276007142Y-97674819D01*
X276007142Y-97674819D02*
X275911904Y-97627200D01*
X275911904Y-97627200D02*
X275864285Y-97579580D01*
X276816666Y-97674819D02*
X277340475Y-97008152D01*
X276816666Y-97008152D02*
X277340475Y-97674819D01*
X277673809Y-96770057D02*
X277721428Y-96722438D01*
X277721428Y-96722438D02*
X277816666Y-96674819D01*
X277816666Y-96674819D02*
X278054761Y-96674819D01*
X278054761Y-96674819D02*
X278149999Y-96722438D01*
X278149999Y-96722438D02*
X278197618Y-96770057D01*
X278197618Y-96770057D02*
X278245237Y-96865295D01*
X278245237Y-96865295D02*
X278245237Y-96960533D01*
X278245237Y-96960533D02*
X278197618Y-97103390D01*
X278197618Y-97103390D02*
X277626190Y-97674819D01*
X277626190Y-97674819D02*
X278245237Y-97674819D01*
X278864285Y-96674819D02*
X278959523Y-96674819D01*
X278959523Y-96674819D02*
X279054761Y-96722438D01*
X279054761Y-96722438D02*
X279102380Y-96770057D01*
X279102380Y-96770057D02*
X279149999Y-96865295D01*
X279149999Y-96865295D02*
X279197618Y-97055771D01*
X279197618Y-97055771D02*
X279197618Y-97293866D01*
X279197618Y-97293866D02*
X279149999Y-97484342D01*
X279149999Y-97484342D02*
X279102380Y-97579580D01*
X279102380Y-97579580D02*
X279054761Y-97627200D01*
X279054761Y-97627200D02*
X278959523Y-97674819D01*
X278959523Y-97674819D02*
X278864285Y-97674819D01*
X278864285Y-97674819D02*
X278769047Y-97627200D01*
X278769047Y-97627200D02*
X278721428Y-97579580D01*
X278721428Y-97579580D02*
X278673809Y-97484342D01*
X278673809Y-97484342D02*
X278626190Y-97293866D01*
X278626190Y-97293866D02*
X278626190Y-97055771D01*
X278626190Y-97055771D02*
X278673809Y-96865295D01*
X278673809Y-96865295D02*
X278721428Y-96770057D01*
X278721428Y-96770057D02*
X278769047Y-96722438D01*
X278769047Y-96722438D02*
X278864285Y-96674819D01*
X279626190Y-97674819D02*
X279626190Y-97008152D01*
X279626190Y-97103390D02*
X279673809Y-97055771D01*
X279673809Y-97055771D02*
X279769047Y-97008152D01*
X279769047Y-97008152D02*
X279911904Y-97008152D01*
X279911904Y-97008152D02*
X280007142Y-97055771D01*
X280007142Y-97055771D02*
X280054761Y-97151009D01*
X280054761Y-97151009D02*
X280054761Y-97674819D01*
X280054761Y-97151009D02*
X280102380Y-97055771D01*
X280102380Y-97055771D02*
X280197618Y-97008152D01*
X280197618Y-97008152D02*
X280340475Y-97008152D01*
X280340475Y-97008152D02*
X280435714Y-97055771D01*
X280435714Y-97055771D02*
X280483333Y-97151009D01*
X280483333Y-97151009D02*
X280483333Y-97674819D01*
X280959523Y-97674819D02*
X280959523Y-97008152D01*
X280959523Y-97103390D02*
X281007142Y-97055771D01*
X281007142Y-97055771D02*
X281102380Y-97008152D01*
X281102380Y-97008152D02*
X281245237Y-97008152D01*
X281245237Y-97008152D02*
X281340475Y-97055771D01*
X281340475Y-97055771D02*
X281388094Y-97151009D01*
X281388094Y-97151009D02*
X281388094Y-97674819D01*
X281388094Y-97151009D02*
X281435713Y-97055771D01*
X281435713Y-97055771D02*
X281530951Y-97008152D01*
X281530951Y-97008152D02*
X281673808Y-97008152D01*
X281673808Y-97008152D02*
X281769047Y-97055771D01*
X281769047Y-97055771D02*
X281816666Y-97151009D01*
X281816666Y-97151009D02*
X281816666Y-97674819D01*
X282054761Y-97770057D02*
X282816665Y-97770057D01*
X283007142Y-97627200D02*
X283149999Y-97674819D01*
X283149999Y-97674819D02*
X283388094Y-97674819D01*
X283388094Y-97674819D02*
X283483332Y-97627200D01*
X283483332Y-97627200D02*
X283530951Y-97579580D01*
X283530951Y-97579580D02*
X283578570Y-97484342D01*
X283578570Y-97484342D02*
X283578570Y-97389104D01*
X283578570Y-97389104D02*
X283530951Y-97293866D01*
X283530951Y-97293866D02*
X283483332Y-97246247D01*
X283483332Y-97246247D02*
X283388094Y-97198628D01*
X283388094Y-97198628D02*
X283197618Y-97151009D01*
X283197618Y-97151009D02*
X283102380Y-97103390D01*
X283102380Y-97103390D02*
X283054761Y-97055771D01*
X283054761Y-97055771D02*
X283007142Y-96960533D01*
X283007142Y-96960533D02*
X283007142Y-96865295D01*
X283007142Y-96865295D02*
X283054761Y-96770057D01*
X283054761Y-96770057D02*
X283102380Y-96722438D01*
X283102380Y-96722438D02*
X283197618Y-96674819D01*
X283197618Y-96674819D02*
X283435713Y-96674819D01*
X283435713Y-96674819D02*
X283578570Y-96722438D01*
X284007142Y-97674819D02*
X284007142Y-97008152D01*
X284007142Y-96674819D02*
X283959523Y-96722438D01*
X283959523Y-96722438D02*
X284007142Y-96770057D01*
X284007142Y-96770057D02*
X284054761Y-96722438D01*
X284054761Y-96722438D02*
X284007142Y-96674819D01*
X284007142Y-96674819D02*
X284007142Y-96770057D01*
X284626189Y-97674819D02*
X284530951Y-97627200D01*
X284530951Y-97627200D02*
X284483332Y-97531961D01*
X284483332Y-97531961D02*
X284483332Y-96674819D01*
X285007142Y-97674819D02*
X285007142Y-96674819D01*
X285102380Y-97293866D02*
X285388094Y-97674819D01*
X285388094Y-97008152D02*
X285007142Y-97389104D01*
X285769047Y-97627200D02*
X285911904Y-97674819D01*
X285911904Y-97674819D02*
X286149999Y-97674819D01*
X286149999Y-97674819D02*
X286245237Y-97627200D01*
X286245237Y-97627200D02*
X286292856Y-97579580D01*
X286292856Y-97579580D02*
X286340475Y-97484342D01*
X286340475Y-97484342D02*
X286340475Y-97389104D01*
X286340475Y-97389104D02*
X286292856Y-97293866D01*
X286292856Y-97293866D02*
X286245237Y-97246247D01*
X286245237Y-97246247D02*
X286149999Y-97198628D01*
X286149999Y-97198628D02*
X285959523Y-97151009D01*
X285959523Y-97151009D02*
X285864285Y-97103390D01*
X285864285Y-97103390D02*
X285816666Y-97055771D01*
X285816666Y-97055771D02*
X285769047Y-96960533D01*
X285769047Y-96960533D02*
X285769047Y-96865295D01*
X285769047Y-96865295D02*
X285816666Y-96770057D01*
X285816666Y-96770057D02*
X285864285Y-96722438D01*
X285864285Y-96722438D02*
X285959523Y-96674819D01*
X285959523Y-96674819D02*
X286197618Y-96674819D01*
X286197618Y-96674819D02*
X286340475Y-96722438D01*
X287197618Y-97627200D02*
X287102380Y-97674819D01*
X287102380Y-97674819D02*
X286911904Y-97674819D01*
X286911904Y-97674819D02*
X286816666Y-97627200D01*
X286816666Y-97627200D02*
X286769047Y-97579580D01*
X286769047Y-97579580D02*
X286721428Y-97484342D01*
X286721428Y-97484342D02*
X286721428Y-97198628D01*
X286721428Y-97198628D02*
X286769047Y-97103390D01*
X286769047Y-97103390D02*
X286816666Y-97055771D01*
X286816666Y-97055771D02*
X286911904Y-97008152D01*
X286911904Y-97008152D02*
X287102380Y-97008152D01*
X287102380Y-97008152D02*
X287197618Y-97055771D01*
X287626190Y-97674819D02*
X287626190Y-97008152D01*
X287626190Y-97198628D02*
X287673809Y-97103390D01*
X287673809Y-97103390D02*
X287721428Y-97055771D01*
X287721428Y-97055771D02*
X287816666Y-97008152D01*
X287816666Y-97008152D02*
X287911904Y-97008152D01*
X288626190Y-97627200D02*
X288530952Y-97674819D01*
X288530952Y-97674819D02*
X288340476Y-97674819D01*
X288340476Y-97674819D02*
X288245238Y-97627200D01*
X288245238Y-97627200D02*
X288197619Y-97531961D01*
X288197619Y-97531961D02*
X288197619Y-97151009D01*
X288197619Y-97151009D02*
X288245238Y-97055771D01*
X288245238Y-97055771D02*
X288340476Y-97008152D01*
X288340476Y-97008152D02*
X288530952Y-97008152D01*
X288530952Y-97008152D02*
X288626190Y-97055771D01*
X288626190Y-97055771D02*
X288673809Y-97151009D01*
X288673809Y-97151009D02*
X288673809Y-97246247D01*
X288673809Y-97246247D02*
X288197619Y-97341485D01*
X289483333Y-97627200D02*
X289388095Y-97674819D01*
X289388095Y-97674819D02*
X289197619Y-97674819D01*
X289197619Y-97674819D02*
X289102381Y-97627200D01*
X289102381Y-97627200D02*
X289054762Y-97531961D01*
X289054762Y-97531961D02*
X289054762Y-97151009D01*
X289054762Y-97151009D02*
X289102381Y-97055771D01*
X289102381Y-97055771D02*
X289197619Y-97008152D01*
X289197619Y-97008152D02*
X289388095Y-97008152D01*
X289388095Y-97008152D02*
X289483333Y-97055771D01*
X289483333Y-97055771D02*
X289530952Y-97151009D01*
X289530952Y-97151009D02*
X289530952Y-97246247D01*
X289530952Y-97246247D02*
X289054762Y-97341485D01*
X289959524Y-97008152D02*
X289959524Y-97674819D01*
X289959524Y-97103390D02*
X290007143Y-97055771D01*
X290007143Y-97055771D02*
X290102381Y-97008152D01*
X290102381Y-97008152D02*
X290245238Y-97008152D01*
X290245238Y-97008152D02*
X290340476Y-97055771D01*
X290340476Y-97055771D02*
X290388095Y-97151009D01*
X290388095Y-97151009D02*
X290388095Y-97674819D01*
X168466669Y-207457196D02*
X168609526Y-207504815D01*
X168609526Y-207504815D02*
X168847621Y-207504815D01*
X168847621Y-207504815D02*
X168942859Y-207457196D01*
X168942859Y-207457196D02*
X168990478Y-207409576D01*
X168990478Y-207409576D02*
X169038097Y-207314338D01*
X169038097Y-207314338D02*
X169038097Y-207219100D01*
X169038097Y-207219100D02*
X168990478Y-207123862D01*
X168990478Y-207123862D02*
X168942859Y-207076243D01*
X168942859Y-207076243D02*
X168847621Y-207028624D01*
X168847621Y-207028624D02*
X168657145Y-206981005D01*
X168657145Y-206981005D02*
X168561907Y-206933386D01*
X168561907Y-206933386D02*
X168514288Y-206885767D01*
X168514288Y-206885767D02*
X168466669Y-206790529D01*
X168466669Y-206790529D02*
X168466669Y-206695291D01*
X168466669Y-206695291D02*
X168514288Y-206600053D01*
X168514288Y-206600053D02*
X168561907Y-206552434D01*
X168561907Y-206552434D02*
X168657145Y-206504815D01*
X168657145Y-206504815D02*
X168895240Y-206504815D01*
X168895240Y-206504815D02*
X169038097Y-206552434D01*
X169371431Y-206504815D02*
X169609526Y-207504815D01*
X169609526Y-207504815D02*
X169800002Y-206790529D01*
X169800002Y-206790529D02*
X169990478Y-207504815D01*
X169990478Y-207504815D02*
X170228574Y-206504815D01*
X170561907Y-206600053D02*
X170609526Y-206552434D01*
X170609526Y-206552434D02*
X170704764Y-206504815D01*
X170704764Y-206504815D02*
X170942859Y-206504815D01*
X170942859Y-206504815D02*
X171038097Y-206552434D01*
X171038097Y-206552434D02*
X171085716Y-206600053D01*
X171085716Y-206600053D02*
X171133335Y-206695291D01*
X171133335Y-206695291D02*
X171133335Y-206790529D01*
X171133335Y-206790529D02*
X171085716Y-206933386D01*
X171085716Y-206933386D02*
X170514288Y-207504815D01*
X170514288Y-207504815D02*
X171133335Y-207504815D01*
D12*
X173866191Y-214498709D02*
X173580477Y-214498709D01*
X173723334Y-214498709D02*
X173723334Y-213998709D01*
X173723334Y-213998709D02*
X173675715Y-214070138D01*
X173675715Y-214070138D02*
X173628096Y-214117757D01*
X173628096Y-214117757D02*
X173580477Y-214141566D01*
X174175714Y-213998709D02*
X174223333Y-213998709D01*
X174223333Y-213998709D02*
X174270952Y-214022519D01*
X174270952Y-214022519D02*
X174294762Y-214046328D01*
X174294762Y-214046328D02*
X174318571Y-214093947D01*
X174318571Y-214093947D02*
X174342381Y-214189185D01*
X174342381Y-214189185D02*
X174342381Y-214308233D01*
X174342381Y-214308233D02*
X174318571Y-214403471D01*
X174318571Y-214403471D02*
X174294762Y-214451090D01*
X174294762Y-214451090D02*
X174270952Y-214474900D01*
X174270952Y-214474900D02*
X174223333Y-214498709D01*
X174223333Y-214498709D02*
X174175714Y-214498709D01*
X174175714Y-214498709D02*
X174128095Y-214474900D01*
X174128095Y-214474900D02*
X174104286Y-214451090D01*
X174104286Y-214451090D02*
X174080476Y-214403471D01*
X174080476Y-214403471D02*
X174056667Y-214308233D01*
X174056667Y-214308233D02*
X174056667Y-214189185D01*
X174056667Y-214189185D02*
X174080476Y-214093947D01*
X174080476Y-214093947D02*
X174104286Y-214046328D01*
X174104286Y-214046328D02*
X174128095Y-214022519D01*
X174128095Y-214022519D02*
X174175714Y-213998709D01*
X174651904Y-213998709D02*
X174699523Y-213998709D01*
X174699523Y-213998709D02*
X174747142Y-214022519D01*
X174747142Y-214022519D02*
X174770952Y-214046328D01*
X174770952Y-214046328D02*
X174794761Y-214093947D01*
X174794761Y-214093947D02*
X174818571Y-214189185D01*
X174818571Y-214189185D02*
X174818571Y-214308233D01*
X174818571Y-214308233D02*
X174794761Y-214403471D01*
X174794761Y-214403471D02*
X174770952Y-214451090D01*
X174770952Y-214451090D02*
X174747142Y-214474900D01*
X174747142Y-214474900D02*
X174699523Y-214498709D01*
X174699523Y-214498709D02*
X174651904Y-214498709D01*
X174651904Y-214498709D02*
X174604285Y-214474900D01*
X174604285Y-214474900D02*
X174580476Y-214451090D01*
X174580476Y-214451090D02*
X174556666Y-214403471D01*
X174556666Y-214403471D02*
X174532857Y-214308233D01*
X174532857Y-214308233D02*
X174532857Y-214189185D01*
X174532857Y-214189185D02*
X174556666Y-214093947D01*
X174556666Y-214093947D02*
X174580476Y-214046328D01*
X174580476Y-214046328D02*
X174604285Y-214022519D01*
X174604285Y-214022519D02*
X174651904Y-213998709D01*
X175032856Y-214165376D02*
X175032856Y-214498709D01*
X175032856Y-214212995D02*
X175056666Y-214189185D01*
X175056666Y-214189185D02*
X175104285Y-214165376D01*
X175104285Y-214165376D02*
X175175713Y-214165376D01*
X175175713Y-214165376D02*
X175223332Y-214189185D01*
X175223332Y-214189185D02*
X175247142Y-214236804D01*
X175247142Y-214236804D02*
X175247142Y-214498709D01*
X175651904Y-214236804D02*
X175485237Y-214236804D01*
X175485237Y-214498709D02*
X175485237Y-213998709D01*
X175485237Y-213998709D02*
X175723332Y-213998709D01*
D11*
X174729765Y-213040714D02*
X174741670Y-213052618D01*
X174741670Y-213052618D02*
X174753574Y-213088333D01*
X174753574Y-213088333D02*
X174753574Y-213112142D01*
X174753574Y-213112142D02*
X174741670Y-213147856D01*
X174741670Y-213147856D02*
X174717860Y-213171666D01*
X174717860Y-213171666D02*
X174694050Y-213183571D01*
X174694050Y-213183571D02*
X174646431Y-213195475D01*
X174646431Y-213195475D02*
X174610717Y-213195475D01*
X174610717Y-213195475D02*
X174563098Y-213183571D01*
X174563098Y-213183571D02*
X174539289Y-213171666D01*
X174539289Y-213171666D02*
X174515479Y-213147856D01*
X174515479Y-213147856D02*
X174503574Y-213112142D01*
X174503574Y-213112142D02*
X174503574Y-213088333D01*
X174503574Y-213088333D02*
X174515479Y-213052618D01*
X174515479Y-213052618D02*
X174527384Y-213040714D01*
X174753574Y-212802618D02*
X174753574Y-212945475D01*
X174753574Y-212874047D02*
X174503574Y-212874047D01*
X174503574Y-212874047D02*
X174539289Y-212897856D01*
X174539289Y-212897856D02*
X174563098Y-212921666D01*
X174563098Y-212921666D02*
X174575003Y-212945475D01*
X174610717Y-212659761D02*
X174598812Y-212683571D01*
X174598812Y-212683571D02*
X174586908Y-212695476D01*
X174586908Y-212695476D02*
X174563098Y-212707380D01*
X174563098Y-212707380D02*
X174551193Y-212707380D01*
X174551193Y-212707380D02*
X174527384Y-212695476D01*
X174527384Y-212695476D02*
X174515479Y-212683571D01*
X174515479Y-212683571D02*
X174503574Y-212659761D01*
X174503574Y-212659761D02*
X174503574Y-212612142D01*
X174503574Y-212612142D02*
X174515479Y-212588333D01*
X174515479Y-212588333D02*
X174527384Y-212576428D01*
X174527384Y-212576428D02*
X174551193Y-212564523D01*
X174551193Y-212564523D02*
X174563098Y-212564523D01*
X174563098Y-212564523D02*
X174586908Y-212576428D01*
X174586908Y-212576428D02*
X174598812Y-212588333D01*
X174598812Y-212588333D02*
X174610717Y-212612142D01*
X174610717Y-212612142D02*
X174610717Y-212659761D01*
X174610717Y-212659761D02*
X174622622Y-212683571D01*
X174622622Y-212683571D02*
X174634527Y-212695476D01*
X174634527Y-212695476D02*
X174658336Y-212707380D01*
X174658336Y-212707380D02*
X174705955Y-212707380D01*
X174705955Y-212707380D02*
X174729765Y-212695476D01*
X174729765Y-212695476D02*
X174741670Y-212683571D01*
X174741670Y-212683571D02*
X174753574Y-212659761D01*
X174753574Y-212659761D02*
X174753574Y-212612142D01*
X174753574Y-212612142D02*
X174741670Y-212588333D01*
X174741670Y-212588333D02*
X174729765Y-212576428D01*
X174729765Y-212576428D02*
X174705955Y-212564523D01*
X174705955Y-212564523D02*
X174658336Y-212564523D01*
X174658336Y-212564523D02*
X174634527Y-212576428D01*
X174634527Y-212576428D02*
X174622622Y-212588333D01*
X174622622Y-212588333D02*
X174610717Y-212612142D01*
D10*
X383482856Y-161117200D02*
X383625713Y-161164819D01*
X383625713Y-161164819D02*
X383863808Y-161164819D01*
X383863808Y-161164819D02*
X383959046Y-161117200D01*
X383959046Y-161117200D02*
X384006665Y-161069580D01*
X384006665Y-161069580D02*
X384054284Y-160974342D01*
X384054284Y-160974342D02*
X384054284Y-160879104D01*
X384054284Y-160879104D02*
X384006665Y-160783866D01*
X384006665Y-160783866D02*
X383959046Y-160736247D01*
X383959046Y-160736247D02*
X383863808Y-160688628D01*
X383863808Y-160688628D02*
X383673332Y-160641009D01*
X383673332Y-160641009D02*
X383578094Y-160593390D01*
X383578094Y-160593390D02*
X383530475Y-160545771D01*
X383530475Y-160545771D02*
X383482856Y-160450533D01*
X383482856Y-160450533D02*
X383482856Y-160355295D01*
X383482856Y-160355295D02*
X383530475Y-160260057D01*
X383530475Y-160260057D02*
X383578094Y-160212438D01*
X383578094Y-160212438D02*
X383673332Y-160164819D01*
X383673332Y-160164819D02*
X383911427Y-160164819D01*
X383911427Y-160164819D02*
X384054284Y-160212438D01*
X384625713Y-161164819D02*
X384530475Y-161117200D01*
X384530475Y-161117200D02*
X384482856Y-161069580D01*
X384482856Y-161069580D02*
X384435237Y-160974342D01*
X384435237Y-160974342D02*
X384435237Y-160688628D01*
X384435237Y-160688628D02*
X384482856Y-160593390D01*
X384482856Y-160593390D02*
X384530475Y-160545771D01*
X384530475Y-160545771D02*
X384625713Y-160498152D01*
X384625713Y-160498152D02*
X384768570Y-160498152D01*
X384768570Y-160498152D02*
X384863808Y-160545771D01*
X384863808Y-160545771D02*
X384911427Y-160593390D01*
X384911427Y-160593390D02*
X384959046Y-160688628D01*
X384959046Y-160688628D02*
X384959046Y-160974342D01*
X384959046Y-160974342D02*
X384911427Y-161069580D01*
X384911427Y-161069580D02*
X384863808Y-161117200D01*
X384863808Y-161117200D02*
X384768570Y-161164819D01*
X384768570Y-161164819D02*
X384625713Y-161164819D01*
X385530475Y-161164819D02*
X385435237Y-161117200D01*
X385435237Y-161117200D02*
X385387618Y-161021961D01*
X385387618Y-161021961D02*
X385387618Y-160164819D01*
X386339999Y-161164819D02*
X386339999Y-160164819D01*
X386339999Y-161117200D02*
X386244761Y-161164819D01*
X386244761Y-161164819D02*
X386054285Y-161164819D01*
X386054285Y-161164819D02*
X385959047Y-161117200D01*
X385959047Y-161117200D02*
X385911428Y-161069580D01*
X385911428Y-161069580D02*
X385863809Y-160974342D01*
X385863809Y-160974342D02*
X385863809Y-160688628D01*
X385863809Y-160688628D02*
X385911428Y-160593390D01*
X385911428Y-160593390D02*
X385959047Y-160545771D01*
X385959047Y-160545771D02*
X386054285Y-160498152D01*
X386054285Y-160498152D02*
X386244761Y-160498152D01*
X386244761Y-160498152D02*
X386339999Y-160545771D01*
X387197142Y-161117200D02*
X387101904Y-161164819D01*
X387101904Y-161164819D02*
X386911428Y-161164819D01*
X386911428Y-161164819D02*
X386816190Y-161117200D01*
X386816190Y-161117200D02*
X386768571Y-161021961D01*
X386768571Y-161021961D02*
X386768571Y-160641009D01*
X386768571Y-160641009D02*
X386816190Y-160545771D01*
X386816190Y-160545771D02*
X386911428Y-160498152D01*
X386911428Y-160498152D02*
X387101904Y-160498152D01*
X387101904Y-160498152D02*
X387197142Y-160545771D01*
X387197142Y-160545771D02*
X387244761Y-160641009D01*
X387244761Y-160641009D02*
X387244761Y-160736247D01*
X387244761Y-160736247D02*
X386768571Y-160831485D01*
X387673333Y-161164819D02*
X387673333Y-160498152D01*
X387673333Y-160688628D02*
X387720952Y-160593390D01*
X387720952Y-160593390D02*
X387768571Y-160545771D01*
X387768571Y-160545771D02*
X387863809Y-160498152D01*
X387863809Y-160498152D02*
X387959047Y-160498152D01*
X388197143Y-160164819D02*
X388435238Y-161164819D01*
X388435238Y-161164819D02*
X388625714Y-160450533D01*
X388625714Y-160450533D02*
X388816190Y-161164819D01*
X388816190Y-161164819D02*
X389054286Y-160164819D01*
X389435238Y-161164819D02*
X389435238Y-160498152D01*
X389435238Y-160164819D02*
X389387619Y-160212438D01*
X389387619Y-160212438D02*
X389435238Y-160260057D01*
X389435238Y-160260057D02*
X389482857Y-160212438D01*
X389482857Y-160212438D02*
X389435238Y-160164819D01*
X389435238Y-160164819D02*
X389435238Y-160260057D01*
X389911428Y-161164819D02*
X389911428Y-160498152D01*
X389911428Y-160688628D02*
X389959047Y-160593390D01*
X389959047Y-160593390D02*
X390006666Y-160545771D01*
X390006666Y-160545771D02*
X390101904Y-160498152D01*
X390101904Y-160498152D02*
X390197142Y-160498152D01*
X390911428Y-161117200D02*
X390816190Y-161164819D01*
X390816190Y-161164819D02*
X390625714Y-161164819D01*
X390625714Y-161164819D02*
X390530476Y-161117200D01*
X390530476Y-161117200D02*
X390482857Y-161021961D01*
X390482857Y-161021961D02*
X390482857Y-160641009D01*
X390482857Y-160641009D02*
X390530476Y-160545771D01*
X390530476Y-160545771D02*
X390625714Y-160498152D01*
X390625714Y-160498152D02*
X390816190Y-160498152D01*
X390816190Y-160498152D02*
X390911428Y-160545771D01*
X390911428Y-160545771D02*
X390959047Y-160641009D01*
X390959047Y-160641009D02*
X390959047Y-160736247D01*
X390959047Y-160736247D02*
X390482857Y-160831485D01*
X391387619Y-161164819D02*
X391387619Y-160164819D01*
X391387619Y-160164819D02*
X391768571Y-160164819D01*
X391768571Y-160164819D02*
X391863809Y-160212438D01*
X391863809Y-160212438D02*
X391911428Y-160260057D01*
X391911428Y-160260057D02*
X391959047Y-160355295D01*
X391959047Y-160355295D02*
X391959047Y-160498152D01*
X391959047Y-160498152D02*
X391911428Y-160593390D01*
X391911428Y-160593390D02*
X391863809Y-160641009D01*
X391863809Y-160641009D02*
X391768571Y-160688628D01*
X391768571Y-160688628D02*
X391387619Y-160688628D01*
X392816190Y-161164819D02*
X392816190Y-160641009D01*
X392816190Y-160641009D02*
X392768571Y-160545771D01*
X392768571Y-160545771D02*
X392673333Y-160498152D01*
X392673333Y-160498152D02*
X392482857Y-160498152D01*
X392482857Y-160498152D02*
X392387619Y-160545771D01*
X392816190Y-161117200D02*
X392720952Y-161164819D01*
X392720952Y-161164819D02*
X392482857Y-161164819D01*
X392482857Y-161164819D02*
X392387619Y-161117200D01*
X392387619Y-161117200D02*
X392340000Y-161021961D01*
X392340000Y-161021961D02*
X392340000Y-160926723D01*
X392340000Y-160926723D02*
X392387619Y-160831485D01*
X392387619Y-160831485D02*
X392482857Y-160783866D01*
X392482857Y-160783866D02*
X392720952Y-160783866D01*
X392720952Y-160783866D02*
X392816190Y-160736247D01*
X393720952Y-161164819D02*
X393720952Y-160164819D01*
X393720952Y-161117200D02*
X393625714Y-161164819D01*
X393625714Y-161164819D02*
X393435238Y-161164819D01*
X393435238Y-161164819D02*
X393340000Y-161117200D01*
X393340000Y-161117200D02*
X393292381Y-161069580D01*
X393292381Y-161069580D02*
X393244762Y-160974342D01*
X393244762Y-160974342D02*
X393244762Y-160688628D01*
X393244762Y-160688628D02*
X393292381Y-160593390D01*
X393292381Y-160593390D02*
X393340000Y-160545771D01*
X393340000Y-160545771D02*
X393435238Y-160498152D01*
X393435238Y-160498152D02*
X393625714Y-160498152D01*
X393625714Y-160498152D02*
X393720952Y-160545771D01*
X393959048Y-161260057D02*
X394720952Y-161260057D01*
X395482857Y-161164819D02*
X394911429Y-161164819D01*
X395197143Y-161164819D02*
X395197143Y-160164819D01*
X395197143Y-160164819D02*
X395101905Y-160307676D01*
X395101905Y-160307676D02*
X395006667Y-160402914D01*
X395006667Y-160402914D02*
X394911429Y-160450533D01*
X395816191Y-161164819D02*
X396340000Y-160498152D01*
X395816191Y-160498152D02*
X396340000Y-161164819D01*
X396911429Y-160164819D02*
X397006667Y-160164819D01*
X397006667Y-160164819D02*
X397101905Y-160212438D01*
X397101905Y-160212438D02*
X397149524Y-160260057D01*
X397149524Y-160260057D02*
X397197143Y-160355295D01*
X397197143Y-160355295D02*
X397244762Y-160545771D01*
X397244762Y-160545771D02*
X397244762Y-160783866D01*
X397244762Y-160783866D02*
X397197143Y-160974342D01*
X397197143Y-160974342D02*
X397149524Y-161069580D01*
X397149524Y-161069580D02*
X397101905Y-161117200D01*
X397101905Y-161117200D02*
X397006667Y-161164819D01*
X397006667Y-161164819D02*
X396911429Y-161164819D01*
X396911429Y-161164819D02*
X396816191Y-161117200D01*
X396816191Y-161117200D02*
X396768572Y-161069580D01*
X396768572Y-161069580D02*
X396720953Y-160974342D01*
X396720953Y-160974342D02*
X396673334Y-160783866D01*
X396673334Y-160783866D02*
X396673334Y-160545771D01*
X396673334Y-160545771D02*
X396720953Y-160355295D01*
X396720953Y-160355295D02*
X396768572Y-160260057D01*
X396768572Y-160260057D02*
X396816191Y-160212438D01*
X396816191Y-160212438D02*
X396911429Y-160164819D01*
X398197143Y-161164819D02*
X397625715Y-161164819D01*
X397911429Y-161164819D02*
X397911429Y-160164819D01*
X397911429Y-160164819D02*
X397816191Y-160307676D01*
X397816191Y-160307676D02*
X397720953Y-160402914D01*
X397720953Y-160402914D02*
X397625715Y-160450533D01*
X398387620Y-161260057D02*
X399149524Y-161260057D01*
X399340001Y-161117200D02*
X399482858Y-161164819D01*
X399482858Y-161164819D02*
X399720953Y-161164819D01*
X399720953Y-161164819D02*
X399816191Y-161117200D01*
X399816191Y-161117200D02*
X399863810Y-161069580D01*
X399863810Y-161069580D02*
X399911429Y-160974342D01*
X399911429Y-160974342D02*
X399911429Y-160879104D01*
X399911429Y-160879104D02*
X399863810Y-160783866D01*
X399863810Y-160783866D02*
X399816191Y-160736247D01*
X399816191Y-160736247D02*
X399720953Y-160688628D01*
X399720953Y-160688628D02*
X399530477Y-160641009D01*
X399530477Y-160641009D02*
X399435239Y-160593390D01*
X399435239Y-160593390D02*
X399387620Y-160545771D01*
X399387620Y-160545771D02*
X399340001Y-160450533D01*
X399340001Y-160450533D02*
X399340001Y-160355295D01*
X399340001Y-160355295D02*
X399387620Y-160260057D01*
X399387620Y-160260057D02*
X399435239Y-160212438D01*
X399435239Y-160212438D02*
X399530477Y-160164819D01*
X399530477Y-160164819D02*
X399768572Y-160164819D01*
X399768572Y-160164819D02*
X399911429Y-160212438D01*
X400340001Y-161164819D02*
X400340001Y-160164819D01*
X400340001Y-160164819D02*
X400673334Y-160879104D01*
X400673334Y-160879104D02*
X401006667Y-160164819D01*
X401006667Y-160164819D02*
X401006667Y-161164819D01*
X401482858Y-161164819D02*
X401482858Y-160164819D01*
X401482858Y-160164819D02*
X401720953Y-160164819D01*
X401720953Y-160164819D02*
X401863810Y-160212438D01*
X401863810Y-160212438D02*
X401959048Y-160307676D01*
X401959048Y-160307676D02*
X402006667Y-160402914D01*
X402006667Y-160402914D02*
X402054286Y-160593390D01*
X402054286Y-160593390D02*
X402054286Y-160736247D01*
X402054286Y-160736247D02*
X402006667Y-160926723D01*
X402006667Y-160926723D02*
X401959048Y-161021961D01*
X401959048Y-161021961D02*
X401863810Y-161117200D01*
X401863810Y-161117200D02*
X401720953Y-161164819D01*
X401720953Y-161164819D02*
X401482858Y-161164819D01*
X402244763Y-161260057D02*
X403006667Y-161260057D01*
X403768572Y-161164819D02*
X403197144Y-161164819D01*
X403482858Y-161164819D02*
X403482858Y-160164819D01*
X403482858Y-160164819D02*
X403387620Y-160307676D01*
X403387620Y-160307676D02*
X403292382Y-160402914D01*
X403292382Y-160402914D02*
X403197144Y-160450533D01*
X404101906Y-161164819D02*
X404625715Y-160498152D01*
X404101906Y-160498152D02*
X404625715Y-161164819D01*
X404959049Y-160260057D02*
X405006668Y-160212438D01*
X405006668Y-160212438D02*
X405101906Y-160164819D01*
X405101906Y-160164819D02*
X405340001Y-160164819D01*
X405340001Y-160164819D02*
X405435239Y-160212438D01*
X405435239Y-160212438D02*
X405482858Y-160260057D01*
X405482858Y-160260057D02*
X405530477Y-160355295D01*
X405530477Y-160355295D02*
X405530477Y-160450533D01*
X405530477Y-160450533D02*
X405482858Y-160593390D01*
X405482858Y-160593390D02*
X404911430Y-161164819D01*
X404911430Y-161164819D02*
X405530477Y-161164819D01*
X405959049Y-161164819D02*
X405959049Y-160498152D01*
X405959049Y-160593390D02*
X406006668Y-160545771D01*
X406006668Y-160545771D02*
X406101906Y-160498152D01*
X406101906Y-160498152D02*
X406244763Y-160498152D01*
X406244763Y-160498152D02*
X406340001Y-160545771D01*
X406340001Y-160545771D02*
X406387620Y-160641009D01*
X406387620Y-160641009D02*
X406387620Y-161164819D01*
X406387620Y-160641009D02*
X406435239Y-160545771D01*
X406435239Y-160545771D02*
X406530477Y-160498152D01*
X406530477Y-160498152D02*
X406673334Y-160498152D01*
X406673334Y-160498152D02*
X406768573Y-160545771D01*
X406768573Y-160545771D02*
X406816192Y-160641009D01*
X406816192Y-160641009D02*
X406816192Y-161164819D01*
X407292382Y-161164819D02*
X407292382Y-160498152D01*
X407292382Y-160593390D02*
X407340001Y-160545771D01*
X407340001Y-160545771D02*
X407435239Y-160498152D01*
X407435239Y-160498152D02*
X407578096Y-160498152D01*
X407578096Y-160498152D02*
X407673334Y-160545771D01*
X407673334Y-160545771D02*
X407720953Y-160641009D01*
X407720953Y-160641009D02*
X407720953Y-161164819D01*
X407720953Y-160641009D02*
X407768572Y-160545771D01*
X407768572Y-160545771D02*
X407863810Y-160498152D01*
X407863810Y-160498152D02*
X408006667Y-160498152D01*
X408006667Y-160498152D02*
X408101906Y-160545771D01*
X408101906Y-160545771D02*
X408149525Y-160641009D01*
X408149525Y-160641009D02*
X408149525Y-161164819D01*
D13*
X166600000Y-214790000D02*
X168100000Y-214790000D01*
X166600000Y-215290000D02*
X166600000Y-214790000D01*
X166600000Y-218490000D02*
X166600000Y-218990000D01*
X166600000Y-218990000D02*
X168100000Y-218990000D01*
X167100000Y-215290000D02*
X167100000Y-214790000D01*
X167100000Y-218490000D02*
X167100000Y-218990000D01*
X167200000Y-215690000D02*
X168600000Y-214290000D01*
X167200000Y-218090000D02*
X167200000Y-215690000D01*
X167600000Y-215290000D02*
X166600000Y-215290000D01*
X167600000Y-218490000D02*
X166600000Y-218490000D01*
X167800000Y-215890000D02*
X167800000Y-217890000D01*
X167800000Y-217890000D02*
X168800000Y-218890000D01*
X168600000Y-214290000D02*
X171000000Y-214290000D01*
X168600000Y-219490000D02*
X167200000Y-218090000D01*
X168800000Y-214890000D02*
X167800000Y-215890000D01*
X168800000Y-218890000D02*
X170800000Y-218890000D01*
X170800000Y-214890000D02*
X168800000Y-214890000D01*
X170800000Y-218890000D02*
X171800000Y-217890000D01*
X171000000Y-214290000D02*
X172400000Y-215690000D01*
X171000000Y-219490000D02*
X168600000Y-219490000D01*
X171800000Y-215890000D02*
X170800000Y-214890000D01*
X171800000Y-217890000D02*
X171800000Y-215890000D01*
X172000000Y-215290000D02*
X173000000Y-215290000D01*
X172000000Y-218490000D02*
X173000000Y-218490000D01*
X172400000Y-215690000D02*
X172400000Y-218090000D01*
X172400000Y-218090000D02*
X171000000Y-219490000D01*
X172500000Y-215290000D02*
X172500000Y-214790000D01*
X172500000Y-218490000D02*
X172500000Y-218990000D01*
X173000000Y-214790000D02*
X171500000Y-214790000D01*
X173000000Y-215290000D02*
X173000000Y-214790000D01*
X173000000Y-218490000D02*
X173000000Y-218990000D01*
X173000000Y-218990000D02*
X171500000Y-218990000D01*
X170800000Y-216890000D02*
G75*
G02*
X168800000Y-216890000I-1000000J0D01*
G01*
X168800000Y-216890000D02*
G75*
G02*
X170800000Y-216890000I1000000J0D01*
G01*
X289740000Y-71610000D02*
X292280000Y-71610000D01*
X289740000Y-84310000D02*
X289740000Y-71610000D01*
X291645000Y-84310000D02*
X289740000Y-84310000D01*
X292280000Y-71610000D02*
X292280000Y-83675000D01*
X292280000Y-83675000D02*
X291645000Y-84310000D01*
X174420000Y-218425000D02*
X174420000Y-219475000D01*
X174420000Y-219475000D02*
X174960000Y-219475000D01*
X174960000Y-218425000D02*
X174420000Y-218425000D01*
X174960000Y-219475000D02*
X174960000Y-218425000D01*
X166600000Y-208700000D02*
X168100000Y-208700000D01*
X166600000Y-209200000D02*
X166600000Y-208700000D01*
X166600000Y-212400000D02*
X166600000Y-212900000D01*
X166600000Y-212900000D02*
X168100000Y-212900000D01*
X167100000Y-209200000D02*
X167100000Y-208700000D01*
X167100000Y-212400000D02*
X167100000Y-212900000D01*
X167200000Y-209600000D02*
X168600000Y-208200000D01*
X167200000Y-212000000D02*
X167200000Y-209600000D01*
X167600000Y-209200000D02*
X166600000Y-209200000D01*
X167600000Y-212400000D02*
X166600000Y-212400000D01*
X167800000Y-209800000D02*
X167800000Y-211800000D01*
X167800000Y-211800000D02*
X168800000Y-212800000D01*
X168600000Y-208200000D02*
X171000000Y-208200000D01*
X168600000Y-213400000D02*
X167200000Y-212000000D01*
X168800000Y-208800000D02*
X167800000Y-209800000D01*
X168800000Y-212800000D02*
X170800000Y-212800000D01*
X170800000Y-208800000D02*
X168800000Y-208800000D01*
X170800000Y-212800000D02*
X171800000Y-211800000D01*
X171000000Y-208200000D02*
X172400000Y-209600000D01*
X171000000Y-213400000D02*
X168600000Y-213400000D01*
X171800000Y-209800000D02*
X170800000Y-208800000D01*
X171800000Y-211800000D02*
X171800000Y-209800000D01*
X172000000Y-209200000D02*
X173000000Y-209200000D01*
X172000000Y-212400000D02*
X173000000Y-212400000D01*
X172400000Y-209600000D02*
X172400000Y-212000000D01*
X172400000Y-212000000D02*
X171000000Y-213400000D01*
X172500000Y-209200000D02*
X172500000Y-208700000D01*
X172500000Y-212400000D02*
X172500000Y-212900000D01*
X173000000Y-208700000D02*
X171500000Y-208700000D01*
X173000000Y-209200000D02*
X173000000Y-208700000D01*
X173000000Y-212400000D02*
X173000000Y-212900000D01*
X173000000Y-212900000D02*
X171500000Y-212900000D01*
X170800000Y-210800000D02*
G75*
G02*
X168800000Y-210800000I-1000000J0D01*
G01*
X168800000Y-210800000D02*
G75*
G02*
X170800000Y-210800000I1000000J0D01*
G01*
X174390000Y-212380000D02*
X174390000Y-213380000D01*
X174390000Y-213380000D02*
X174890000Y-213380000D01*
X174890000Y-212380000D02*
X174390000Y-212380000D01*
X174890000Y-213380000D02*
X174890000Y-212380000D01*
X395210000Y-161980000D02*
X396470000Y-161980000D01*
X395210000Y-164520000D02*
X395210000Y-161980000D01*
X396470000Y-161980000D02*
X396470000Y-164520000D01*
X396470000Y-164520000D02*
X395210000Y-164520000D01*
M02*
