G04 #@! TF.GenerationSoftware,KiCad,Pcbnew,9.0.0*
G04 #@! TF.CreationDate,2025-04-22T01:26:23+02:00*
G04 #@! TF.ProjectId,takt11800,74616b74-3131-4383-9030-2e6b69636164,1.0.0*
G04 #@! TF.SameCoordinates,Original*
G04 #@! TF.FileFunction,Paste,Bot*
G04 #@! TF.FilePolarity,Positive*
%FSLAX46Y46*%
G04 Gerber Fmt 4.6, Leading zero omitted, Abs format (unit mm)*
G04 Created by KiCad (PCBNEW 9.0.0) date 2025-04-22 01:26:23*
%MOMM*%
%LPD*%
G01*
G04 APERTURE LIST*
G04 Aperture macros list*
%AMRoundRect*
0 Rectangle with rounded corners*
0 $1 Rounding radius*
0 $2 $3 $4 $5 $6 $7 $8 $9 X,Y pos of 4 corners*
0 Add a 4 corners polygon primitive as box body*
4,1,4,$2,$3,$4,$5,$6,$7,$8,$9,$2,$3,0*
0 Add four circle primitives for the rounded corners*
1,1,$1+$1,$2,$3*
1,1,$1+$1,$4,$5*
1,1,$1+$1,$6,$7*
1,1,$1+$1,$8,$9*
0 Add four rect primitives between the rounded corners*
20,1,$1+$1,$2,$3,$4,$5,0*
20,1,$1+$1,$4,$5,$6,$7,0*
20,1,$1+$1,$6,$7,$8,$9,0*
20,1,$1+$1,$8,$9,$2,$3,0*%
G04 Aperture macros list end*
%ADD10R,1.200000X1.600000*%
%ADD11R,1.600000X1.200000*%
%ADD12RoundRect,0.135000X-0.185000X0.135000X-0.185000X-0.135000X0.185000X-0.135000X0.185000X0.135000X0*%
%ADD13RoundRect,0.140000X-0.140000X-0.170000X0.140000X-0.170000X0.140000X0.170000X-0.140000X0.170000X0*%
%ADD14RoundRect,0.140000X-0.170000X0.140000X-0.170000X-0.140000X0.170000X-0.140000X0.170000X0.140000X0*%
%ADD15RoundRect,0.135000X0.185000X-0.135000X0.185000X0.135000X-0.185000X0.135000X-0.185000X-0.135000X0*%
%ADD16RoundRect,0.150000X0.512500X0.150000X-0.512500X0.150000X-0.512500X-0.150000X0.512500X-0.150000X0*%
%ADD17RoundRect,0.075000X0.662500X0.075000X-0.662500X0.075000X-0.662500X-0.075000X0.662500X-0.075000X0*%
%ADD18RoundRect,0.075000X0.075000X0.662500X-0.075000X0.662500X-0.075000X-0.662500X0.075000X-0.662500X0*%
%ADD19R,1.450000X0.600000*%
%ADD20R,1.450000X0.300000*%
%ADD21RoundRect,0.140000X0.140000X0.170000X-0.140000X0.170000X-0.140000X-0.170000X0.140000X-0.170000X0*%
%ADD22RoundRect,0.150000X0.587500X0.150000X-0.587500X0.150000X-0.587500X-0.150000X0.587500X-0.150000X0*%
%ADD23RoundRect,0.135000X-0.135000X-0.185000X0.135000X-0.185000X0.135000X0.185000X-0.135000X0.185000X0*%
%ADD24R,1.750000X0.450000*%
%ADD25RoundRect,0.218750X0.218750X0.256250X-0.218750X0.256250X-0.218750X-0.256250X0.218750X-0.256250X0*%
%ADD26RoundRect,0.140000X0.170000X-0.140000X0.170000X0.140000X-0.170000X0.140000X-0.170000X-0.140000X0*%
G04 APERTURE END LIST*
D10*
X47050000Y-85320000D03*
X47050000Y-82520000D03*
X76197500Y-82832500D03*
X76197500Y-80032500D03*
X95247500Y-82832500D03*
X95247500Y-80032500D03*
X114297500Y-82713750D03*
X114297500Y-79913750D03*
X133347500Y-82713750D03*
X133347500Y-79913750D03*
X152397500Y-82713750D03*
X152397500Y-79913750D03*
X171447500Y-82713750D03*
X171447500Y-79913750D03*
X76197500Y-102001250D03*
X76197500Y-99201250D03*
X95247500Y-102001250D03*
X95247500Y-99201250D03*
X114297500Y-102001250D03*
X114297500Y-99201250D03*
X133347500Y-102001250D03*
X133347500Y-99201250D03*
X152397500Y-102001250D03*
X152397500Y-99201250D03*
X171447500Y-101882500D03*
X171447500Y-99082500D03*
X57147500Y-139982500D03*
X57147500Y-137182500D03*
X114297500Y-139982500D03*
X114297500Y-137182500D03*
X133347500Y-139982500D03*
X133347500Y-137182500D03*
X152397500Y-139982500D03*
X152397500Y-137182500D03*
X171447500Y-139982500D03*
X171447500Y-137182500D03*
X190497500Y-139982500D03*
X190497500Y-137182500D03*
X209547500Y-139982500D03*
X209547500Y-137182500D03*
X228597500Y-139982500D03*
X228597500Y-137182500D03*
X247647500Y-139982500D03*
X247647500Y-137182500D03*
X47622500Y-159032500D03*
X47622500Y-156232500D03*
X66672500Y-159032500D03*
X66672500Y-156232500D03*
X85722500Y-159032500D03*
X85722500Y-156232500D03*
X104772500Y-159032500D03*
X104772500Y-156232500D03*
X123822500Y-159032500D03*
X123822500Y-156232500D03*
X142872500Y-159032500D03*
X142872500Y-156232500D03*
X161922500Y-159032500D03*
X161922500Y-156232500D03*
X180972500Y-159032500D03*
X180972500Y-156232500D03*
X200022500Y-159032500D03*
X200022500Y-156232500D03*
X219072500Y-159032500D03*
X219072500Y-156232500D03*
X238122500Y-159032500D03*
X238122500Y-156232500D03*
X257172500Y-159032500D03*
X257172500Y-156232500D03*
X276222500Y-159032500D03*
X276222500Y-156232500D03*
X304797500Y-159032500D03*
X304797500Y-156232500D03*
X47622500Y-178082500D03*
X47622500Y-175282500D03*
X71435000Y-178082500D03*
X71435000Y-175282500D03*
X90485000Y-178082500D03*
X90485000Y-175282500D03*
X109535000Y-178082500D03*
X109535000Y-175282500D03*
X128585000Y-178082500D03*
X128585000Y-175282500D03*
X147635000Y-178082500D03*
X147635000Y-175282500D03*
X166685000Y-178082500D03*
X166685000Y-175282500D03*
X185735000Y-178082500D03*
X185735000Y-175282500D03*
X204785000Y-178082500D03*
X204785000Y-175282500D03*
X223835000Y-178082500D03*
X223835000Y-175282500D03*
X242885000Y-178082500D03*
X242885000Y-175282500D03*
X261833400Y-180155600D03*
X261833400Y-177355600D03*
X290510000Y-194870000D03*
X290510000Y-192070000D03*
X20300000Y-194440000D03*
X20300000Y-191640000D03*
X61910000Y-197132500D03*
X61910000Y-194332500D03*
X80960000Y-197132500D03*
X80960000Y-194332500D03*
X100010000Y-197132500D03*
X100010000Y-194332500D03*
X119060000Y-197132500D03*
X119060000Y-194332500D03*
X138110000Y-197132500D03*
X138110000Y-194332500D03*
X157160000Y-197132500D03*
X157160000Y-194332500D03*
X176210000Y-197132500D03*
X176210000Y-194332500D03*
X195260000Y-197132500D03*
X195260000Y-194332500D03*
X233360000Y-197132500D03*
X233360000Y-194332500D03*
X252333800Y-188421400D03*
X252333800Y-185621400D03*
X266697500Y-139982500D03*
X266697500Y-137182500D03*
X309880000Y-139350000D03*
X309880000Y-136550000D03*
X252232200Y-198781600D03*
X252232200Y-195981600D03*
X39090000Y-139970000D03*
X39090000Y-137170000D03*
X345278750Y-82832500D03*
X345278750Y-80032500D03*
X364328750Y-82832500D03*
X364328750Y-80032500D03*
X382040000Y-83460000D03*
X382040000Y-80660000D03*
X402428750Y-82951250D03*
X402428750Y-80151250D03*
D11*
X391503750Y-88576250D03*
X394303750Y-88576250D03*
X391156400Y-125488800D03*
X393956400Y-125488800D03*
D10*
X345278750Y-120932500D03*
X345278750Y-118132500D03*
X364328750Y-120932500D03*
X364328750Y-118132500D03*
X402828800Y-128082600D03*
X402828800Y-125282600D03*
X345278750Y-139982500D03*
X345278750Y-137182500D03*
X364328750Y-139982500D03*
X364328750Y-137182500D03*
D11*
X371472500Y-126676250D03*
X374272500Y-126676250D03*
D10*
X326228750Y-156651250D03*
X326228750Y-153851250D03*
D11*
X372453750Y-145726250D03*
X375253750Y-145726250D03*
D10*
X364328750Y-156651250D03*
X364328750Y-153851250D03*
X345278750Y-101882500D03*
X345278750Y-99082500D03*
X364328750Y-101882500D03*
X364328750Y-99082500D03*
D11*
X372572500Y-88576250D03*
X375372500Y-88576250D03*
D10*
X76197500Y-139982500D03*
X76197500Y-137182500D03*
X95247500Y-139982500D03*
X95247500Y-137182500D03*
X307000000Y-139340000D03*
X307000000Y-136540000D03*
X261833400Y-169789400D03*
X261833400Y-166989400D03*
X314322500Y-201895000D03*
X314322500Y-199095000D03*
X333372500Y-220945000D03*
X333372500Y-218145000D03*
X314322500Y-220945000D03*
X314322500Y-218145000D03*
X295272500Y-220945000D03*
X295272500Y-218145000D03*
X382040000Y-156270000D03*
X382040000Y-153470000D03*
X192010000Y-214510000D03*
X192010000Y-211710000D03*
X161925000Y-214193750D03*
X161925000Y-211393750D03*
X20130000Y-213520000D03*
X20130000Y-210720000D03*
X271510000Y-218350000D03*
X271510000Y-215550000D03*
X200022500Y-82713750D03*
X200022500Y-79913750D03*
X219072500Y-82832500D03*
X219072500Y-80032500D03*
X238122500Y-82713750D03*
X238122500Y-79913750D03*
X257172500Y-82713750D03*
X257172500Y-79913750D03*
X286447500Y-82713750D03*
X286447500Y-79913750D03*
X200022500Y-101882500D03*
X200022500Y-99082500D03*
X219072500Y-101882500D03*
X219072500Y-99082500D03*
X238122500Y-101882500D03*
X238122500Y-99082500D03*
X257172500Y-101882500D03*
X257172500Y-99082500D03*
X304797500Y-178082500D03*
X304797500Y-175282500D03*
D11*
X372453750Y-107626250D03*
X375253750Y-107626250D03*
X243180000Y-221870000D03*
X245980000Y-221870000D03*
D10*
X95290000Y-215510000D03*
X95290000Y-212710000D03*
X214310000Y-197132500D03*
X214310000Y-194332500D03*
X92150000Y-215500000D03*
X92150000Y-212700000D03*
X317610000Y-80210000D03*
X317610000Y-77410000D03*
X189880000Y-214450000D03*
X189880000Y-211650000D03*
X307390000Y-80050000D03*
X307390000Y-77250000D03*
X297370000Y-79980000D03*
X297370000Y-77180000D03*
D12*
X301900000Y-103420000D03*
X301900000Y-102400000D03*
D13*
X272220000Y-100250000D03*
X271260000Y-100250000D03*
D14*
X299220000Y-98570000D03*
X299220000Y-97610000D03*
D15*
X301880000Y-93620000D03*
X301880000Y-94640000D03*
D16*
X294990000Y-96270000D03*
X294990000Y-95320000D03*
X294990000Y-94370000D03*
X297265000Y-94370000D03*
X297265000Y-95320000D03*
X297265000Y-96270000D03*
D17*
X271757500Y-97747500D03*
X271757500Y-97247500D03*
X271757500Y-96747500D03*
X271757500Y-96247500D03*
X271757500Y-95747500D03*
X271757500Y-95247500D03*
X271757500Y-94747500D03*
X271757500Y-94247500D03*
X271757500Y-93747500D03*
X271757500Y-93247500D03*
X271757500Y-92747500D03*
X271757500Y-92247500D03*
D18*
X273170000Y-90835000D03*
X273670000Y-90835000D03*
X274170000Y-90835000D03*
X274670000Y-90835000D03*
X275170000Y-90835000D03*
X275670000Y-90835000D03*
X276170000Y-90835000D03*
X276670000Y-90835000D03*
X277170000Y-90835000D03*
X277670000Y-90835000D03*
X278170000Y-90835000D03*
X278670000Y-90835000D03*
D17*
X280082500Y-92247500D03*
X280082500Y-92747500D03*
X280082500Y-93247500D03*
X280082500Y-93747500D03*
X280082500Y-94247500D03*
X280082500Y-94747500D03*
X280082500Y-95247500D03*
X280082500Y-95747500D03*
X280082500Y-96247500D03*
X280082500Y-96747500D03*
X280082500Y-97247500D03*
X280082500Y-97747500D03*
D18*
X278670000Y-99160000D03*
X278170000Y-99160000D03*
X277670000Y-99160000D03*
X277170000Y-99160000D03*
X276670000Y-99160000D03*
X276170000Y-99160000D03*
X275670000Y-99160000D03*
X275170000Y-99160000D03*
X274670000Y-99160000D03*
X274170000Y-99160000D03*
X273670000Y-99160000D03*
X273170000Y-99160000D03*
D13*
X280543500Y-99714500D03*
X279583500Y-99714500D03*
X271653500Y-98694500D03*
X270693500Y-98694500D03*
D19*
X303755000Y-95270000D03*
X303755000Y-96070000D03*
D20*
X303755000Y-97270000D03*
X303755000Y-98270000D03*
X303755000Y-98770000D03*
X303755000Y-99770000D03*
D19*
X303755000Y-100970000D03*
X303755000Y-101770000D03*
X303755000Y-101770000D03*
X303755000Y-100970000D03*
D20*
X303755000Y-100270000D03*
X303755000Y-99270000D03*
X303755000Y-97770000D03*
X303755000Y-96770000D03*
D19*
X303755000Y-96070000D03*
X303755000Y-95270000D03*
D21*
X268600000Y-92970000D03*
X269560000Y-92970000D03*
D13*
X281150000Y-91300000D03*
X280190000Y-91300000D03*
D22*
X295372500Y-103190000D03*
X295372500Y-101290000D03*
X297247500Y-102240000D03*
D23*
X265830000Y-92430000D03*
X264810000Y-92430000D03*
D24*
X273110000Y-110180000D03*
X273110000Y-109530000D03*
X273110000Y-108880000D03*
X273110000Y-108230000D03*
X273110000Y-107580000D03*
X273110000Y-106930000D03*
X273110000Y-106280000D03*
X273110000Y-105630000D03*
X273110000Y-104980000D03*
X273110000Y-104330000D03*
X273110000Y-103680000D03*
X273110000Y-103030000D03*
X280310000Y-103030000D03*
X280310000Y-103680000D03*
X280310000Y-104330000D03*
X280310000Y-104980000D03*
X280310000Y-105630000D03*
X280310000Y-106280000D03*
X280310000Y-106930000D03*
X280310000Y-107580000D03*
X280310000Y-108230000D03*
X280310000Y-108880000D03*
X280310000Y-109530000D03*
X280310000Y-110180000D03*
D13*
X281143500Y-98694500D03*
X280183500Y-98694500D03*
D25*
X295452500Y-98560000D03*
X297027500Y-98560000D03*
D21*
X268950000Y-94030000D03*
X269910000Y-94030000D03*
D13*
X280560000Y-90270000D03*
X279600000Y-90270000D03*
D26*
X293620000Y-101290000D03*
X293620000Y-102250000D03*
D23*
X265840000Y-93490000D03*
X264820000Y-93490000D03*
M02*
