M48
METRIC,TZ
T1C0.650
T2C1.750
T3C3.048
T4C3.988
T5C12.000
T6C13.000
T7C14.000
%
G90
G05
T1
X305200Y-95630
X305200Y-101410
T2
X23713Y-136701
X23713Y-212901
X23715Y-79751
X26094Y-174801
X26094Y-193851
X26095Y-212901
X28476Y-155751
X28476Y-212901
X30857Y-174801
X33873Y-136701
X33873Y-212901
X33875Y-79751
X35619Y-193851
X36254Y-174801
X36254Y-193851
X36255Y-212901
X38636Y-155751
X38636Y-212901
X41017Y-174801
X42763Y-136701
X42763Y-212901
X45779Y-193851
X47526Y-193851
X49907Y-212901
X52288Y-155751
X52923Y-136701
X52923Y-212901
X57051Y-174801
X57051Y-212901
X57686Y-193851
X60067Y-212901
X61811Y-79751
X61811Y-98801
X61813Y-136701
X61813Y-212901
X62448Y-155751
X66576Y-193851
X67211Y-174801
X67211Y-212901
X71338Y-155751
X71971Y-79751
X71971Y-98801
X71973Y-136701
X71973Y-212901
X73719Y-212901
X76101Y-174801
X76736Y-193851
X80861Y-79751
X80861Y-98801
X80863Y-136701
X81498Y-155751
X83879Y-212901
X85626Y-193851
X86261Y-174801
X90388Y-155751
X91021Y-79751
X91021Y-98801
X91023Y-136701
X95151Y-174801
X95786Y-193851
X99911Y-79751
X99911Y-98801
X99913Y-136701
X100548Y-155751
X104676Y-193851
X105311Y-174801
X109438Y-155751
X110071Y-79751
X110071Y-98801
X110073Y-136701
X114201Y-174801
X114836Y-193851
X118961Y-79751
X118961Y-98801
X118963Y-136701
X119598Y-155751
X123726Y-193851
X124360Y-174801
X128487Y-212902
X128488Y-155751
X129121Y-79751
X129121Y-98801
X129123Y-136701
X130870Y-212901
X133251Y-174801
X133886Y-193851
X138011Y-79751
X138011Y-98801
X138013Y-136701
X138013Y-212901
X138647Y-212902
X138648Y-155751
X141030Y-212901
X142776Y-193851
X143410Y-174801
X145157Y-212901
X147538Y-155751
X148171Y-79751
X148171Y-98801
X148173Y-136701
X148173Y-212901
X152301Y-174801
X152936Y-193851
X155317Y-212901
X157061Y-79751
X157061Y-98801
X157063Y-136701
X157698Y-155751
X161826Y-193851
X162461Y-174801
X166588Y-155751
X167221Y-79751
X167221Y-98801
X167223Y-136701
X171351Y-174801
X171986Y-193851
X176113Y-136701
X176748Y-155751
X180876Y-193851
X181511Y-174801
X185634Y-79751
X185634Y-98801
X185638Y-155751
X186273Y-136701
X190401Y-174801
X191036Y-193851
X195163Y-136701
X195163Y-212901
X195794Y-79751
X195794Y-98801
X195798Y-155751
X199926Y-193851
X200561Y-174801
X202307Y-212901
X204684Y-79751
X204684Y-98801
X204688Y-155751
X205323Y-136701
X205323Y-212901
X209450Y-174801
X210086Y-193851
X212467Y-212901
X214213Y-136701
X214213Y-212901
X214844Y-79751
X214844Y-98801
X214848Y-155751
X218975Y-193851
X218976Y-212901
X219611Y-174801
X223734Y-79751
X223734Y-98801
X223738Y-155751
X224373Y-136701
X224373Y-212901
X226120Y-212901
X228501Y-174801
X229135Y-193851
X229136Y-212901
X233263Y-136701
X233263Y-212901
X233894Y-79751
X233894Y-98801
X233898Y-155751
X236280Y-212901
X238026Y-193851
X238661Y-174801
X242783Y-79751
X242783Y-98801
X242788Y-155751
X243423Y-136701
X243423Y-212901
X245169Y-212901
X247551Y-174801
X247551Y-212901
X248186Y-193851
X252313Y-136701
X252313Y-212901
X252944Y-79751
X252944Y-98801
X252948Y-155751
X255329Y-212901
X257075Y-193851
X257710Y-174801
X257711Y-212901
X261838Y-155751
X262473Y-136701
X262473Y-212901
X266601Y-174801
X266601Y-193851
X267236Y-193851
X271363Y-136701
X271365Y-79751
X271998Y-155751
X276126Y-193851
X276760Y-174801
X276760Y-193851
X278507Y-174801
X280882Y-218330
X280888Y-136701
X281523Y-136701
X281525Y-79751
X285650Y-155751
X286286Y-193851
X288032Y-165276
X288667Y-174801
X290413Y-136701
X291042Y-218330
X291048Y-136701
X295811Y-155751
X298192Y-165276
X299932Y-199280
X299932Y-218330
X300573Y-136701
X310092Y-199280
X310092Y-218330
X318982Y-218330
X329142Y-218330
X330174Y-79051
X330174Y-98101
X330174Y-117151
X330174Y-136201
X330174Y-155251
X339699Y-155251
X340334Y-79051
X340334Y-98101
X340334Y-117151
X340334Y-136201
X340334Y-155251
X349224Y-79051
X349224Y-98101
X349224Y-117151
X349224Y-136201
X349224Y-155251
X349859Y-155251
X359384Y-79051
X359384Y-98101
X359384Y-117151
X359384Y-136201
X359384Y-155251
X368274Y-79051
X368274Y-98101
X368274Y-117151
X368274Y-136201
X368274Y-155251
X378434Y-79051
X378434Y-98101
X378434Y-117151
X378434Y-136201
X378434Y-155251
X387324Y-79051
X387324Y-98101
X387324Y-107626
X387324Y-117151
X387324Y-136201
X387324Y-145726
X387324Y-155251
X397484Y-79051
X397484Y-98101
X397484Y-107626
X397484Y-117151
X397484Y-136201
X397484Y-145726
X397484Y-155251
T3
X28793Y-186866
X52605Y-186866
X85942Y-205917
X85943Y-205916
X85950Y-205916
X100237Y-205916
X181192Y-205917
X185949Y-205916
X200237Y-205916
X200243Y-205916
X259774Y-186866
X271681Y-167816
X274062Y-143686
X283587Y-186866
X295493Y-167816
X297874Y-143686
X300097Y-153338
X300097Y-177214
X332873Y-162236
X356685Y-162236
X385419Y-95688
X385419Y-119564
X385419Y-133788
X385419Y-157664
T4
X28793Y-136701
X28793Y-202106
X28793Y-212901
X28795Y-79751
X31174Y-174801
X31174Y-193851
X31175Y-212901
X33555Y-155751
X33556Y-212901
X35937Y-174801
X40699Y-193851
X47843Y-136701
X47843Y-212901
X52605Y-193851
X52605Y-202106
X54987Y-212901
X57368Y-155751
X62130Y-174801
X62131Y-212901
X66891Y-79751
X66891Y-98801
X66893Y-136701
X66893Y-212901
X71656Y-193851
X76418Y-155751
X78799Y-212901
X81181Y-174801
X85941Y-79751
X85941Y-98801
X85942Y-221157
X85943Y-136701
X85943Y-221156
X85950Y-221156
X90706Y-193851
X95468Y-155751
X100231Y-174801
X100237Y-221156
X104991Y-79751
X104991Y-98801
X104993Y-136701
X109756Y-193851
X114518Y-155751
X119281Y-174801
X124041Y-79751
X124041Y-98801
X124043Y-136701
X128806Y-193851
X133567Y-212902
X133568Y-155751
X135950Y-212901
X138331Y-174801
X143091Y-79751
X143091Y-98801
X143093Y-136701
X143093Y-212901
X147856Y-193851
X150237Y-212901
X152618Y-155751
X157381Y-174801
X162141Y-79751
X162141Y-98801
X162143Y-136701
X166906Y-193851
X171668Y-155751
X176431Y-174801
X181192Y-221157
X181193Y-136701
X185949Y-221156
X185956Y-193851
X190714Y-79751
X190714Y-98801
X190718Y-155751
X195481Y-174801
X200237Y-221156
X200243Y-136701
X200243Y-221156
X200243Y-212901
X205006Y-193851
X207387Y-212901
X209764Y-79751
X209764Y-98801
X209768Y-155751
X214531Y-174801
X219293Y-136701
X219293Y-212901
X224056Y-193851
X224056Y-212901
X228814Y-79751
X228814Y-98801
X228818Y-155751
X231200Y-212901
X233581Y-174801
X238343Y-136701
X238343Y-212901
X243106Y-193851
X247864Y-79751
X247864Y-98801
X247868Y-155751
X250249Y-212901
X252631Y-174801
X252631Y-212901
X257393Y-136701
X257393Y-212901
X259774Y-202106
X262155Y-193851
X266918Y-155751
X271681Y-174801
X271681Y-183056
X271681Y-193851
X274062Y-128446
X276443Y-136701
X276445Y-79751
X281206Y-193851
X283587Y-174801
X283587Y-202106
X284857Y-153338
X284857Y-177214
X285962Y-218330
X285968Y-136701
X290731Y-155751
X293112Y-165276
X295493Y-136701
X295493Y-183056
X297874Y-128446
X305012Y-199280
X305012Y-218330
X324062Y-218330
X332873Y-146996
X335254Y-79051
X335254Y-98101
X335254Y-117151
X335254Y-136201
X335254Y-155251
X344779Y-155251
X354304Y-79051
X354304Y-98101
X354304Y-117151
X354304Y-136201
X354304Y-155251
X356685Y-146996
X373354Y-79051
X373354Y-98101
X373354Y-117151
X373354Y-136201
X373354Y-155251
X392404Y-79051
X392404Y-98101
X392404Y-107626
X392404Y-117151
X392404Y-136201
X392404Y-145726
X392404Y-155251
X400659Y-95688
X400659Y-119564
X400659Y-133788
X400659Y-157664
T5
X27510Y-116370
T6
X301450Y-117340
X317900Y-117440
T7
X118930Y-116030
X211190Y-116180
M30
