G04 #@! TF.GenerationSoftware,KiCad,Pcbnew,9.0.0*
G04 #@! TF.CreationDate,2025-04-22T01:26:24+02:00*
G04 #@! TF.ProjectId,takt11800,74616b74-3131-4383-9030-2e6b69636164,1.0.0*
G04 #@! TF.SameCoordinates,Original*
G04 #@! TF.FileFunction,Profile,NP*
%FSLAX46Y46*%
G04 Gerber Fmt 4.6, Leading zero omitted, Abs format (unit mm)*
G04 Created by KiCad (PCBNEW 9.0.0) date 2025-04-22 01:26:24*
%MOMM*%
%LPD*%
G01*
G04 APERTURE LIST*
G04 #@! TA.AperFunction,Profile*
%ADD10C,1.000000*%
G04 #@! TD*
G04 APERTURE END LIST*
D10*
X297830000Y-65940000D02*
X297830000Y-68440000D01*
X282830000Y-59430000D02*
X282830000Y-68430000D01*
X337990000Y-204910000D02*
X318990000Y-204910000D01*
X120830000Y-65910000D02*
X35830000Y-65920000D01*
X120830000Y-65910000D02*
X120830000Y-68410000D01*
X35830000Y-68420000D02*
X20830000Y-68410000D01*
X20830000Y-64910000D02*
X20830000Y-68410000D01*
X14990000Y-64910000D02*
X14990000Y-225910000D01*
X282830000Y-59430000D02*
X135830000Y-59420000D01*
X135830000Y-68420000D02*
X120830000Y-68410000D01*
X135830000Y-59420000D02*
X135830000Y-68420000D01*
X297830000Y-68440000D02*
X282830000Y-68430000D01*
X337990000Y-225910000D02*
X337990000Y-204910000D01*
X35830000Y-65920000D02*
X35830000Y-68420000D01*
X318990000Y-204910000D02*
X318990000Y-165910000D01*
X406231250Y-165950000D02*
X318990000Y-165910000D01*
X406231250Y-65940000D02*
X406231250Y-165950000D01*
X406231250Y-65940000D02*
X400211250Y-65940000D01*
X400211250Y-65940000D02*
X400211250Y-68440000D01*
X400211250Y-68440000D02*
X385211250Y-68430000D01*
X385211250Y-65930000D02*
X385211250Y-68430000D01*
X385211250Y-65930000D02*
X297830000Y-65940000D01*
X14990000Y-225910000D02*
X337990000Y-225910000D01*
X14990000Y-64910000D02*
X20830000Y-64910000D01*
M02*
