G04 #@! TF.GenerationSoftware,KiCad,Pcbnew,9.0.0*
G04 #@! TF.CreationDate,2025-04-22T01:26:24+02:00*
G04 #@! TF.ProjectId,takt11800,74616b74-3131-4383-9030-2e6b69636164,1.0.0*
G04 #@! TF.SameCoordinates,Original*
G04 #@! TF.FileFunction,Soldermask,Bot*
G04 #@! TF.FilePolarity,Negative*
%FSLAX46Y46*%
G04 Gerber Fmt 4.6, Leading zero omitted, Abs format (unit mm)*
G04 Created by KiCad (PCBNEW 9.0.0) date 2025-04-22 01:26:24*
%MOMM*%
%LPD*%
G01*
G04 APERTURE LIST*
G04 Aperture macros list*
%AMRoundRect*
0 Rectangle with rounded corners*
0 $1 Rounding radius*
0 $2 $3 $4 $5 $6 $7 $8 $9 X,Y pos of 4 corners*
0 Add a 4 corners polygon primitive as box body*
4,1,4,$2,$3,$4,$5,$6,$7,$8,$9,$2,$3,0*
0 Add four circle primitives for the rounded corners*
1,1,$1+$1,$2,$3*
1,1,$1+$1,$4,$5*
1,1,$1+$1,$6,$7*
1,1,$1+$1,$8,$9*
0 Add four rect primitives between the rounded corners*
20,1,$1+$1,$2,$3,$4,$5,0*
20,1,$1+$1,$4,$5,$6,$7,0*
20,1,$1+$1,$6,$7,$8,$9,0*
20,1,$1+$1,$8,$9,$2,$3,0*%
G04 Aperture macros list end*
%ADD10C,0.500000*%
%ADD11C,1.750000*%
%ADD12C,3.987800*%
%ADD13C,2.250000*%
%ADD14R,1.200000X1.600000*%
%ADD15R,1.600000X1.600000*%
%ADD16C,1.600000*%
%ADD17C,3.048000*%
%ADD18R,1.600000X1.200000*%
%ADD19R,1.800000X1.800000*%
%ADD20C,1.800000*%
%ADD21C,1.524000*%
%ADD22R,1.700000X1.700000*%
%ADD23O,1.700000X1.700000*%
%ADD24O,12.000000X12.000000*%
%ADD25C,13.000000*%
%ADD26C,14.000000*%
%ADD27RoundRect,0.135000X-0.185000X0.135000X-0.185000X-0.135000X0.185000X-0.135000X0.185000X0.135000X0*%
%ADD28RoundRect,0.140000X-0.140000X-0.170000X0.140000X-0.170000X0.140000X0.170000X-0.140000X0.170000X0*%
%ADD29RoundRect,0.140000X-0.170000X0.140000X-0.170000X-0.140000X0.170000X-0.140000X0.170000X0.140000X0*%
%ADD30RoundRect,0.135000X0.185000X-0.135000X0.185000X0.135000X-0.185000X0.135000X-0.185000X-0.135000X0*%
%ADD31RoundRect,0.150000X0.512500X0.150000X-0.512500X0.150000X-0.512500X-0.150000X0.512500X-0.150000X0*%
%ADD32RoundRect,0.075000X0.662500X0.075000X-0.662500X0.075000X-0.662500X-0.075000X0.662500X-0.075000X0*%
%ADD33RoundRect,0.075000X0.075000X0.662500X-0.075000X0.662500X-0.075000X-0.662500X0.075000X-0.662500X0*%
%ADD34C,0.650000*%
%ADD35R,1.450000X0.600000*%
%ADD36R,1.450000X0.300000*%
%ADD37O,1.600000X1.000000*%
%ADD38O,2.100000X1.000000*%
%ADD39RoundRect,0.140000X0.140000X0.170000X-0.140000X0.170000X-0.140000X-0.170000X0.140000X-0.170000X0*%
%ADD40R,1.350000X1.350000*%
%ADD41O,1.350000X1.350000*%
%ADD42RoundRect,0.150000X0.587500X0.150000X-0.587500X0.150000X-0.587500X-0.150000X0.587500X-0.150000X0*%
%ADD43RoundRect,0.135000X-0.135000X-0.185000X0.135000X-0.185000X0.135000X0.185000X-0.135000X0.185000X0*%
%ADD44R,1.750000X0.450000*%
%ADD45RoundRect,0.218750X0.218750X0.256250X-0.218750X0.256250X-0.218750X-0.256250X0.218750X-0.256250X0*%
%ADD46RoundRect,0.140000X0.170000X-0.140000X0.170000X0.140000X-0.170000X0.140000X-0.170000X-0.140000X0*%
G04 APERTURE END LIST*
D10*
X240454762Y-115974238D02*
X240264285Y-115974238D01*
X240264285Y-115974238D02*
X240073809Y-116069476D01*
X240073809Y-116069476D02*
X239978571Y-116164714D01*
X239978571Y-116164714D02*
X239883333Y-116355190D01*
X239883333Y-116355190D02*
X239788095Y-116736142D01*
X239788095Y-116736142D02*
X239788095Y-117212333D01*
X239788095Y-117212333D02*
X239883333Y-117593285D01*
X239883333Y-117593285D02*
X239978571Y-117783761D01*
X239978571Y-117783761D02*
X240073809Y-117879000D01*
X240073809Y-117879000D02*
X240264285Y-117974238D01*
X240264285Y-117974238D02*
X240454762Y-117974238D01*
X240454762Y-117974238D02*
X240645238Y-117879000D01*
X240645238Y-117879000D02*
X240740476Y-117783761D01*
X240740476Y-117783761D02*
X240835714Y-117593285D01*
X240835714Y-117593285D02*
X240930952Y-117212333D01*
X240930952Y-117212333D02*
X240930952Y-116736142D01*
X240930952Y-116736142D02*
X240835714Y-116355190D01*
X240835714Y-116355190D02*
X240740476Y-116164714D01*
X240740476Y-116164714D02*
X240645238Y-116069476D01*
X240645238Y-116069476D02*
X240454762Y-115974238D01*
X239121428Y-115974238D02*
X237883333Y-115974238D01*
X237883333Y-115974238D02*
X238550000Y-116736142D01*
X238550000Y-116736142D02*
X238264285Y-116736142D01*
X238264285Y-116736142D02*
X238073809Y-116831380D01*
X238073809Y-116831380D02*
X237978571Y-116926619D01*
X237978571Y-116926619D02*
X237883333Y-117117095D01*
X237883333Y-117117095D02*
X237883333Y-117593285D01*
X237883333Y-117593285D02*
X237978571Y-117783761D01*
X237978571Y-117783761D02*
X238073809Y-117879000D01*
X238073809Y-117879000D02*
X238264285Y-117974238D01*
X238264285Y-117974238D02*
X238835714Y-117974238D01*
X238835714Y-117974238D02*
X239026190Y-117879000D01*
X239026190Y-117879000D02*
X239121428Y-117783761D01*
X235597619Y-115879000D02*
X237311904Y-118450428D01*
X235026190Y-116164714D02*
X234930952Y-116069476D01*
X234930952Y-116069476D02*
X234740476Y-115974238D01*
X234740476Y-115974238D02*
X234264285Y-115974238D01*
X234264285Y-115974238D02*
X234073809Y-116069476D01*
X234073809Y-116069476D02*
X233978571Y-116164714D01*
X233978571Y-116164714D02*
X233883333Y-116355190D01*
X233883333Y-116355190D02*
X233883333Y-116545666D01*
X233883333Y-116545666D02*
X233978571Y-116831380D01*
X233978571Y-116831380D02*
X235121428Y-117974238D01*
X235121428Y-117974238D02*
X233883333Y-117974238D01*
X232645238Y-115974238D02*
X232454761Y-115974238D01*
X232454761Y-115974238D02*
X232264285Y-116069476D01*
X232264285Y-116069476D02*
X232169047Y-116164714D01*
X232169047Y-116164714D02*
X232073809Y-116355190D01*
X232073809Y-116355190D02*
X231978571Y-116736142D01*
X231978571Y-116736142D02*
X231978571Y-117212333D01*
X231978571Y-117212333D02*
X232073809Y-117593285D01*
X232073809Y-117593285D02*
X232169047Y-117783761D01*
X232169047Y-117783761D02*
X232264285Y-117879000D01*
X232264285Y-117879000D02*
X232454761Y-117974238D01*
X232454761Y-117974238D02*
X232645238Y-117974238D01*
X232645238Y-117974238D02*
X232835714Y-117879000D01*
X232835714Y-117879000D02*
X232930952Y-117783761D01*
X232930952Y-117783761D02*
X233026190Y-117593285D01*
X233026190Y-117593285D02*
X233121428Y-117212333D01*
X233121428Y-117212333D02*
X233121428Y-116736142D01*
X233121428Y-116736142D02*
X233026190Y-116355190D01*
X233026190Y-116355190D02*
X232930952Y-116164714D01*
X232930952Y-116164714D02*
X232835714Y-116069476D01*
X232835714Y-116069476D02*
X232645238Y-115974238D01*
X231216666Y-116164714D02*
X231121428Y-116069476D01*
X231121428Y-116069476D02*
X230930952Y-115974238D01*
X230930952Y-115974238D02*
X230454761Y-115974238D01*
X230454761Y-115974238D02*
X230264285Y-116069476D01*
X230264285Y-116069476D02*
X230169047Y-116164714D01*
X230169047Y-116164714D02*
X230073809Y-116355190D01*
X230073809Y-116355190D02*
X230073809Y-116545666D01*
X230073809Y-116545666D02*
X230169047Y-116831380D01*
X230169047Y-116831380D02*
X231311904Y-117974238D01*
X231311904Y-117974238D02*
X230073809Y-117974238D01*
X228264285Y-115974238D02*
X229216666Y-115974238D01*
X229216666Y-115974238D02*
X229311904Y-116926619D01*
X229311904Y-116926619D02*
X229216666Y-116831380D01*
X229216666Y-116831380D02*
X229026190Y-116736142D01*
X229026190Y-116736142D02*
X228549999Y-116736142D01*
X228549999Y-116736142D02*
X228359523Y-116831380D01*
X228359523Y-116831380D02*
X228264285Y-116926619D01*
X228264285Y-116926619D02*
X228169047Y-117117095D01*
X228169047Y-117117095D02*
X228169047Y-117593285D01*
X228169047Y-117593285D02*
X228264285Y-117783761D01*
X228264285Y-117783761D02*
X228359523Y-117879000D01*
X228359523Y-117879000D02*
X228549999Y-117974238D01*
X228549999Y-117974238D02*
X229026190Y-117974238D01*
X229026190Y-117974238D02*
X229216666Y-117879000D01*
X229216666Y-117879000D02*
X229311904Y-117783761D01*
D11*
X23715500Y-79751250D03*
D12*
X28795500Y-79751250D03*
D11*
X33875500Y-79751250D03*
D13*
X24985500Y-77211250D03*
X31335500Y-74671250D03*
D14*
X47050000Y-85320000D03*
D15*
X47050000Y-87820000D03*
D16*
X47050000Y-80020000D03*
D14*
X47050000Y-82520000D03*
X76197500Y-82832500D03*
D15*
X76197500Y-85332500D03*
D16*
X76197500Y-77532500D03*
D14*
X76197500Y-80032500D03*
X95247500Y-82832500D03*
D15*
X95247500Y-85332500D03*
D16*
X95247500Y-77532500D03*
D14*
X95247500Y-80032500D03*
X114297500Y-82713750D03*
D15*
X114297500Y-85213750D03*
D16*
X114297500Y-77413750D03*
D14*
X114297500Y-79913750D03*
X133347500Y-82713750D03*
D15*
X133347500Y-85213750D03*
D16*
X133347500Y-77413750D03*
D14*
X133347500Y-79913750D03*
X152397500Y-82713750D03*
D15*
X152397500Y-85213750D03*
D16*
X152397500Y-77413750D03*
D14*
X152397500Y-79913750D03*
X171447500Y-82713750D03*
D15*
X171447500Y-85213750D03*
D16*
X171447500Y-77413750D03*
D14*
X171447500Y-79913750D03*
X76197500Y-102001250D03*
D15*
X76197500Y-104501250D03*
D16*
X76197500Y-96701250D03*
D14*
X76197500Y-99201250D03*
X95247500Y-102001250D03*
D15*
X95247500Y-104501250D03*
D16*
X95247500Y-96701250D03*
D14*
X95247500Y-99201250D03*
X114297500Y-102001250D03*
D15*
X114297500Y-104501250D03*
D16*
X114297500Y-96701250D03*
D14*
X114297500Y-99201250D03*
X133347500Y-102001250D03*
D15*
X133347500Y-104501250D03*
D16*
X133347500Y-96701250D03*
D14*
X133347500Y-99201250D03*
X152397500Y-102001250D03*
D15*
X152397500Y-104501250D03*
D16*
X152397500Y-96701250D03*
D14*
X152397500Y-99201250D03*
X171447500Y-101882500D03*
D15*
X171447500Y-104382500D03*
D16*
X171447500Y-96582500D03*
D14*
X171447500Y-99082500D03*
X57147500Y-139982500D03*
D15*
X57147500Y-142482500D03*
D16*
X57147500Y-134682500D03*
D14*
X57147500Y-137182500D03*
X114297500Y-139982500D03*
D15*
X114297500Y-142482500D03*
D16*
X114297500Y-134682500D03*
D14*
X114297500Y-137182500D03*
X133347500Y-139982500D03*
D15*
X133347500Y-142482500D03*
D16*
X133347500Y-134682500D03*
D14*
X133347500Y-137182500D03*
X152397500Y-139982500D03*
D15*
X152397500Y-142482500D03*
D16*
X152397500Y-134682500D03*
D14*
X152397500Y-137182500D03*
X171447500Y-139982500D03*
D15*
X171447500Y-142482500D03*
D16*
X171447500Y-134682500D03*
D14*
X171447500Y-137182500D03*
X190497500Y-139982500D03*
D15*
X190497500Y-142482500D03*
D16*
X190497500Y-134682500D03*
D14*
X190497500Y-137182500D03*
X209547500Y-139982500D03*
D15*
X209547500Y-142482500D03*
D16*
X209547500Y-134682500D03*
D14*
X209547500Y-137182500D03*
X228597500Y-139982500D03*
D15*
X228597500Y-142482500D03*
D16*
X228597500Y-134682500D03*
D14*
X228597500Y-137182500D03*
X247647500Y-139982500D03*
D15*
X247647500Y-142482500D03*
D16*
X247647500Y-134682500D03*
D14*
X247647500Y-137182500D03*
X47622500Y-159032500D03*
D15*
X47622500Y-161532500D03*
D16*
X47622500Y-153732500D03*
D14*
X47622500Y-156232500D03*
X66672500Y-159032500D03*
D15*
X66672500Y-161532500D03*
D16*
X66672500Y-153732500D03*
D14*
X66672500Y-156232500D03*
X85722500Y-159032500D03*
D15*
X85722500Y-161532500D03*
D16*
X85722500Y-153732500D03*
D14*
X85722500Y-156232500D03*
X104772500Y-159032500D03*
D15*
X104772500Y-161532500D03*
D16*
X104772500Y-153732500D03*
D14*
X104772500Y-156232500D03*
X123822500Y-159032500D03*
D15*
X123822500Y-161532500D03*
D16*
X123822500Y-153732500D03*
D14*
X123822500Y-156232500D03*
X142872500Y-159032500D03*
D15*
X142872500Y-161532500D03*
D16*
X142872500Y-153732500D03*
D14*
X142872500Y-156232500D03*
X161922500Y-159032500D03*
D15*
X161922500Y-161532500D03*
D16*
X161922500Y-153732500D03*
D14*
X161922500Y-156232500D03*
X180972500Y-159032500D03*
D15*
X180972500Y-161532500D03*
D16*
X180972500Y-153732500D03*
D14*
X180972500Y-156232500D03*
X200022500Y-159032500D03*
D15*
X200022500Y-161532500D03*
D16*
X200022500Y-153732500D03*
D14*
X200022500Y-156232500D03*
X219072500Y-159032500D03*
D15*
X219072500Y-161532500D03*
D16*
X219072500Y-153732500D03*
D14*
X219072500Y-156232500D03*
X238122500Y-159032500D03*
D15*
X238122500Y-161532500D03*
D16*
X238122500Y-153732500D03*
D14*
X238122500Y-156232500D03*
X257172500Y-159032500D03*
D15*
X257172500Y-161532500D03*
D16*
X257172500Y-153732500D03*
D14*
X257172500Y-156232500D03*
X276222500Y-159032500D03*
D15*
X276222500Y-161532500D03*
D16*
X276222500Y-153732500D03*
D14*
X276222500Y-156232500D03*
X304797500Y-159032500D03*
D15*
X304797500Y-161532500D03*
D16*
X304797500Y-153732500D03*
D14*
X304797500Y-156232500D03*
X47622500Y-178082500D03*
D15*
X47622500Y-180582500D03*
D16*
X47622500Y-172782500D03*
D14*
X47622500Y-175282500D03*
X71435000Y-178082500D03*
D15*
X71435000Y-180582500D03*
D16*
X71435000Y-172782500D03*
D14*
X71435000Y-175282500D03*
X90485000Y-178082500D03*
D15*
X90485000Y-180582500D03*
D16*
X90485000Y-172782500D03*
D14*
X90485000Y-175282500D03*
X109535000Y-178082500D03*
D15*
X109535000Y-180582500D03*
D16*
X109535000Y-172782500D03*
D14*
X109535000Y-175282500D03*
X128585000Y-178082500D03*
D15*
X128585000Y-180582500D03*
D16*
X128585000Y-172782500D03*
D14*
X128585000Y-175282500D03*
X147635000Y-178082500D03*
D15*
X147635000Y-180582500D03*
D16*
X147635000Y-172782500D03*
D14*
X147635000Y-175282500D03*
X166685000Y-178082500D03*
D15*
X166685000Y-180582500D03*
D16*
X166685000Y-172782500D03*
D14*
X166685000Y-175282500D03*
X185735000Y-178082500D03*
D15*
X185735000Y-180582500D03*
D16*
X185735000Y-172782500D03*
D14*
X185735000Y-175282500D03*
X204785000Y-178082500D03*
D15*
X204785000Y-180582500D03*
D16*
X204785000Y-172782500D03*
D14*
X204785000Y-175282500D03*
X223835000Y-178082500D03*
D15*
X223835000Y-180582500D03*
D16*
X223835000Y-172782500D03*
D14*
X223835000Y-175282500D03*
X242885000Y-178082500D03*
D15*
X242885000Y-180582500D03*
D16*
X242885000Y-172782500D03*
D14*
X242885000Y-175282500D03*
X261833400Y-180155600D03*
D15*
X261833400Y-182655600D03*
D16*
X261833400Y-174855600D03*
D14*
X261833400Y-177355600D03*
X290510000Y-194870000D03*
D15*
X290510000Y-197370000D03*
D16*
X290510000Y-189570000D03*
D14*
X290510000Y-192070000D03*
X20300000Y-194440000D03*
D15*
X20300000Y-196940000D03*
D16*
X20300000Y-189140000D03*
D14*
X20300000Y-191640000D03*
X61910000Y-197132500D03*
D15*
X61910000Y-199632500D03*
D16*
X61910000Y-191832500D03*
D14*
X61910000Y-194332500D03*
X80960000Y-197132500D03*
D15*
X80960000Y-199632500D03*
D16*
X80960000Y-191832500D03*
D14*
X80960000Y-194332500D03*
X100010000Y-197132500D03*
D15*
X100010000Y-199632500D03*
D16*
X100010000Y-191832500D03*
D14*
X100010000Y-194332500D03*
X119060000Y-197132500D03*
D15*
X119060000Y-199632500D03*
D16*
X119060000Y-191832500D03*
D14*
X119060000Y-194332500D03*
X138110000Y-197132500D03*
D15*
X138110000Y-199632500D03*
D16*
X138110000Y-191832500D03*
D14*
X138110000Y-194332500D03*
X157160000Y-197132500D03*
D15*
X157160000Y-199632500D03*
D16*
X157160000Y-191832500D03*
D14*
X157160000Y-194332500D03*
X176210000Y-197132500D03*
D15*
X176210000Y-199632500D03*
D16*
X176210000Y-191832500D03*
D14*
X176210000Y-194332500D03*
X195260000Y-197132500D03*
D15*
X195260000Y-199632500D03*
D16*
X195260000Y-191832500D03*
D14*
X195260000Y-194332500D03*
X233360000Y-197132500D03*
D15*
X233360000Y-199632500D03*
D16*
X233360000Y-191832500D03*
D14*
X233360000Y-194332500D03*
X252333800Y-188421400D03*
D15*
X252333800Y-190921400D03*
D16*
X252333800Y-183121400D03*
D14*
X252333800Y-185621400D03*
D11*
X61810900Y-79751250D03*
D12*
X66890900Y-79751250D03*
D11*
X71970900Y-79751250D03*
D13*
X63080900Y-77211250D03*
X69430900Y-74671250D03*
D11*
X80860900Y-79751250D03*
D12*
X85940900Y-79751250D03*
D11*
X91020900Y-79751250D03*
D13*
X82130900Y-77211250D03*
X88480900Y-74671250D03*
D11*
X99910900Y-79751250D03*
D12*
X104990900Y-79751250D03*
D11*
X110070900Y-79751250D03*
D13*
X101180900Y-77211250D03*
X107530900Y-74671250D03*
D11*
X118960900Y-79751250D03*
D12*
X124040900Y-79751250D03*
D11*
X129120900Y-79751250D03*
D13*
X120230900Y-77211250D03*
X126580900Y-74671250D03*
D11*
X138010900Y-79751250D03*
D12*
X143090900Y-79751250D03*
D11*
X148170900Y-79751250D03*
D13*
X139280900Y-77211250D03*
X145630900Y-74671250D03*
D11*
X157060900Y-79751250D03*
D12*
X162140900Y-79751250D03*
D11*
X167220900Y-79751250D03*
D13*
X158330900Y-77211250D03*
X164680900Y-74671250D03*
D11*
X61810900Y-98801250D03*
D12*
X66890900Y-98801250D03*
D11*
X71970900Y-98801250D03*
D13*
X63080900Y-96261250D03*
X69430900Y-93721250D03*
D11*
X80860900Y-98801250D03*
D12*
X85940900Y-98801250D03*
D11*
X91020900Y-98801250D03*
D13*
X82130900Y-96261250D03*
X88480900Y-93721250D03*
D11*
X99910900Y-98801250D03*
D12*
X104990900Y-98801250D03*
D11*
X110070900Y-98801250D03*
D13*
X101180900Y-96261250D03*
X107530900Y-93721250D03*
D11*
X118960900Y-98801250D03*
D12*
X124040900Y-98801250D03*
D11*
X129120900Y-98801250D03*
D13*
X120230900Y-96261250D03*
X126580900Y-93721250D03*
D11*
X138010900Y-98801250D03*
D12*
X143090900Y-98801250D03*
D11*
X148170900Y-98801250D03*
D13*
X139280900Y-96261250D03*
X145630900Y-93721250D03*
D11*
X157060900Y-98801250D03*
D12*
X162140900Y-98801250D03*
D11*
X167220900Y-98801250D03*
D13*
X158330900Y-96261250D03*
X164680900Y-93721250D03*
D11*
X185633500Y-98801250D03*
D12*
X190713500Y-98801250D03*
D11*
X195793500Y-98801250D03*
D13*
X186903500Y-96261250D03*
X193253500Y-93721250D03*
D11*
X204683500Y-98801250D03*
D12*
X209763500Y-98801250D03*
D11*
X214843500Y-98801250D03*
D13*
X205953500Y-96261250D03*
X212303500Y-93721250D03*
D11*
X223733500Y-98801250D03*
D12*
X228813500Y-98801250D03*
D11*
X233893500Y-98801250D03*
D13*
X225003500Y-96261250D03*
X231353500Y-93721250D03*
D11*
X242783500Y-98801250D03*
D12*
X247863500Y-98801250D03*
D11*
X252943500Y-98801250D03*
D13*
X244053500Y-96261250D03*
X250403500Y-93721250D03*
D11*
X26094250Y-193851250D03*
D12*
X31174250Y-193851250D03*
D11*
X36254250Y-193851250D03*
D13*
X27364250Y-191311250D03*
X33714250Y-188771250D03*
D17*
X28793000Y-186866250D03*
D12*
X28793000Y-202106250D03*
D11*
X35619250Y-193851250D03*
D12*
X40699250Y-193851250D03*
D11*
X45779250Y-193851250D03*
D17*
X52605500Y-186866250D03*
D12*
X52605500Y-202106250D03*
D13*
X36889250Y-191311250D03*
X43239250Y-188771250D03*
D11*
X47525500Y-193851250D03*
D12*
X52605500Y-193851250D03*
D11*
X57685500Y-193851250D03*
D13*
X48795500Y-191311250D03*
X55145500Y-188771250D03*
D11*
X66575500Y-193851250D03*
D12*
X71655500Y-193851250D03*
D11*
X76735500Y-193851250D03*
D13*
X67845500Y-191311250D03*
X74195500Y-188771250D03*
D11*
X85625500Y-193851250D03*
D12*
X90705500Y-193851250D03*
D11*
X95785500Y-193851250D03*
D13*
X86895500Y-191311250D03*
X93245500Y-188771250D03*
D11*
X104675500Y-193851250D03*
D12*
X109755500Y-193851250D03*
D11*
X114835500Y-193851250D03*
D13*
X105945500Y-191311250D03*
X112295500Y-188771250D03*
D11*
X123725500Y-193851250D03*
D12*
X128805500Y-193851250D03*
D11*
X133885500Y-193851250D03*
D13*
X124995500Y-191311250D03*
X131345500Y-188771250D03*
D11*
X142775500Y-193851250D03*
D12*
X147855500Y-193851250D03*
D11*
X152935500Y-193851250D03*
D13*
X144045500Y-191311250D03*
X150395500Y-188771250D03*
D11*
X161825500Y-193851250D03*
D12*
X166905500Y-193851250D03*
D11*
X171985500Y-193851250D03*
D13*
X163095500Y-191311250D03*
X169445500Y-188771250D03*
D11*
X180875500Y-193851250D03*
D12*
X185955500Y-193851250D03*
D11*
X191035500Y-193851250D03*
D13*
X182145500Y-191311250D03*
X188495500Y-188771250D03*
D11*
X199925500Y-193851250D03*
D12*
X205005500Y-193851250D03*
D11*
X210085500Y-193851250D03*
D13*
X201195500Y-191311250D03*
X207545500Y-188771250D03*
D11*
X218975500Y-193851250D03*
D12*
X224055500Y-193851250D03*
D11*
X229135500Y-193851250D03*
D13*
X220245500Y-191311250D03*
X226595500Y-188771250D03*
D11*
X238025500Y-193851250D03*
D12*
X243105500Y-193851250D03*
D11*
X248185500Y-193851250D03*
D13*
X239295500Y-191311250D03*
X245645500Y-188771250D03*
D11*
X23713000Y-136701250D03*
D12*
X28793000Y-136701250D03*
D11*
X33873000Y-136701250D03*
D13*
X24983000Y-134161250D03*
X31333000Y-131621250D03*
D11*
X42763000Y-136701250D03*
D12*
X47843000Y-136701250D03*
D11*
X52923000Y-136701250D03*
D13*
X44033000Y-134161250D03*
X50383000Y-131621250D03*
D11*
X61813000Y-136701250D03*
D12*
X66893000Y-136701250D03*
D11*
X71973000Y-136701250D03*
D13*
X63083000Y-134161250D03*
X69433000Y-131621250D03*
D11*
X80863000Y-136701250D03*
D12*
X85943000Y-136701250D03*
D11*
X91023000Y-136701250D03*
D13*
X82133000Y-134161250D03*
X88483000Y-131621250D03*
D11*
X99913000Y-136701250D03*
D12*
X104993000Y-136701250D03*
D11*
X110073000Y-136701250D03*
D13*
X101183000Y-134161250D03*
X107533000Y-131621250D03*
D11*
X118963000Y-136701250D03*
D12*
X124043000Y-136701250D03*
D11*
X129123000Y-136701250D03*
D13*
X120233000Y-134161250D03*
X126583000Y-131621250D03*
D11*
X138013000Y-136701250D03*
D12*
X143093000Y-136701250D03*
D11*
X148173000Y-136701250D03*
D13*
X139283000Y-134161250D03*
X145633000Y-131621250D03*
D11*
X157063000Y-136701250D03*
D12*
X162143000Y-136701250D03*
D11*
X167223000Y-136701250D03*
D13*
X158333000Y-134161250D03*
X164683000Y-131621250D03*
D11*
X176113000Y-136701250D03*
D12*
X181193000Y-136701250D03*
D11*
X186273000Y-136701250D03*
D13*
X177383000Y-134161250D03*
X183733000Y-131621250D03*
D11*
X195163000Y-136701250D03*
D12*
X200243000Y-136701250D03*
D11*
X205323000Y-136701250D03*
D13*
X196433000Y-134161250D03*
X202783000Y-131621250D03*
D11*
X214213000Y-136701250D03*
D12*
X219293000Y-136701250D03*
D11*
X224373000Y-136701250D03*
D13*
X215483000Y-134161250D03*
X221833000Y-131621250D03*
D11*
X233263000Y-136701250D03*
D12*
X238343000Y-136701250D03*
D11*
X243423000Y-136701250D03*
D13*
X234533000Y-134161250D03*
X240883000Y-131621250D03*
D11*
X252313000Y-136701250D03*
D12*
X257393000Y-136701250D03*
D11*
X262473000Y-136701250D03*
D13*
X253583000Y-134161250D03*
X259933000Y-131621250D03*
D11*
X276125500Y-193851250D03*
D12*
X281205500Y-193851250D03*
D11*
X286285500Y-193851250D03*
D13*
X277395500Y-191311250D03*
X283745500Y-188771250D03*
D14*
X266697500Y-139982500D03*
D15*
X266697500Y-142482500D03*
D16*
X266697500Y-134682500D03*
D14*
X266697500Y-137182500D03*
D11*
X257075500Y-193851250D03*
D12*
X262155500Y-193851250D03*
D11*
X267235500Y-193851250D03*
D13*
X258345500Y-191311250D03*
X264695500Y-188771250D03*
D14*
X309880000Y-139350000D03*
D15*
X309880000Y-141850000D03*
D16*
X309880000Y-134050000D03*
D14*
X309880000Y-136550000D03*
D11*
X299932000Y-199280000D03*
D12*
X305012000Y-199280000D03*
D11*
X310092000Y-199280000D03*
D13*
X301202000Y-196740000D03*
X307552000Y-194200000D03*
D14*
X252232200Y-198781600D03*
D15*
X252232200Y-201281600D03*
D16*
X252232200Y-193481600D03*
D14*
X252232200Y-195981600D03*
D11*
X271364500Y-79751250D03*
D12*
X276444500Y-79751250D03*
D11*
X281524500Y-79751250D03*
D13*
X272634500Y-77211250D03*
X278984500Y-74671250D03*
D17*
X259774250Y-186866250D03*
D12*
X259774250Y-202106250D03*
D11*
X266600500Y-193851250D03*
D12*
X271680500Y-193851250D03*
D11*
X276760500Y-193851250D03*
D17*
X283586750Y-186866250D03*
D12*
X283586750Y-202106250D03*
D13*
X267870500Y-191311250D03*
X274220500Y-188771250D03*
D11*
X271363000Y-136701250D03*
D12*
X276443000Y-136701250D03*
D11*
X281523000Y-136701250D03*
D13*
X272633000Y-134161250D03*
X278983000Y-131621250D03*
D11*
X290413000Y-136701250D03*
D12*
X295493000Y-136701250D03*
D11*
X300573000Y-136701250D03*
D13*
X291683000Y-134161250D03*
X298033000Y-131621250D03*
D12*
X274061750Y-128446250D03*
D17*
X274061750Y-143686250D03*
D11*
X280888000Y-136701250D03*
D12*
X285968000Y-136701250D03*
D11*
X291048000Y-136701250D03*
D12*
X297874250Y-128446250D03*
D17*
X297874250Y-143686250D03*
D13*
X282158000Y-134161250D03*
X288508000Y-131621250D03*
D11*
X330173750Y-98101250D03*
D12*
X335253750Y-98101250D03*
D11*
X340333750Y-98101250D03*
D13*
X331443750Y-95561250D03*
X337793750Y-93021250D03*
D11*
X349223750Y-98101250D03*
D12*
X354303750Y-98101250D03*
D11*
X359383750Y-98101250D03*
D13*
X350493750Y-95561250D03*
X356843750Y-93021250D03*
D11*
X368273750Y-98101250D03*
D12*
X373353750Y-98101250D03*
D11*
X378433750Y-98101250D03*
D13*
X369543750Y-95561250D03*
X375893750Y-93021250D03*
D14*
X39090000Y-139970000D03*
D15*
X39090000Y-142470000D03*
D16*
X39090000Y-134670000D03*
D14*
X39090000Y-137170000D03*
D17*
X385418750Y-95688250D03*
X385418750Y-119564250D03*
D11*
X387323750Y-107626250D03*
D12*
X392403750Y-107626250D03*
D11*
X397483750Y-107626250D03*
D12*
X400658750Y-95688250D03*
X400658750Y-119564250D03*
D13*
X388593750Y-105086250D03*
X394943750Y-102546250D03*
D11*
X330173750Y-117151250D03*
D12*
X335253750Y-117151250D03*
D11*
X340333750Y-117151250D03*
D13*
X331443750Y-114611250D03*
X337793750Y-112071250D03*
D11*
X349223750Y-117151250D03*
D12*
X354303750Y-117151250D03*
D11*
X359383750Y-117151250D03*
D13*
X350493750Y-114611250D03*
X356843750Y-112071250D03*
D11*
X368273750Y-117151250D03*
D12*
X373353750Y-117151250D03*
D11*
X378433750Y-117151250D03*
D13*
X369543750Y-114611250D03*
X375893750Y-112071250D03*
D11*
X330173750Y-136201250D03*
D12*
X335253750Y-136201250D03*
D11*
X340333750Y-136201250D03*
D13*
X331443750Y-133661250D03*
X337793750Y-131121250D03*
D11*
X349223750Y-136201250D03*
D12*
X354303750Y-136201250D03*
D11*
X359383750Y-136201250D03*
D13*
X350493750Y-133661250D03*
X356843750Y-131121250D03*
D11*
X368273750Y-136201250D03*
D12*
X373353750Y-136201250D03*
D11*
X378433750Y-136201250D03*
D13*
X369543750Y-133661250D03*
X375893750Y-131121250D03*
D11*
X387323750Y-136201250D03*
D12*
X392403750Y-136201250D03*
D11*
X397483750Y-136201250D03*
D13*
X388593750Y-133661250D03*
X394943750Y-131121250D03*
D17*
X385418750Y-133788250D03*
X385418750Y-157664250D03*
D11*
X387323750Y-145726250D03*
D12*
X392403750Y-145726250D03*
D11*
X397483750Y-145726250D03*
D12*
X400658750Y-133788250D03*
X400658750Y-157664250D03*
D13*
X388593750Y-143186250D03*
X394943750Y-140646250D03*
D12*
X332872500Y-146996250D03*
D17*
X332872500Y-162236250D03*
D11*
X339698750Y-155251250D03*
D12*
X344778750Y-155251250D03*
D11*
X349858750Y-155251250D03*
D12*
X356685000Y-146996250D03*
D17*
X356685000Y-162236250D03*
D13*
X340968750Y-152711250D03*
X347318750Y-150171250D03*
D11*
X330173750Y-155251250D03*
D12*
X335253750Y-155251250D03*
D11*
X340333750Y-155251250D03*
D13*
X331443750Y-152711250D03*
X337793750Y-150171250D03*
D14*
X345278750Y-82832500D03*
D15*
X345278750Y-85332500D03*
D16*
X345278750Y-77532500D03*
D14*
X345278750Y-80032500D03*
X364328750Y-82832500D03*
D15*
X364328750Y-85332500D03*
D16*
X364328750Y-77532500D03*
D14*
X364328750Y-80032500D03*
X382040000Y-83460000D03*
D15*
X382040000Y-85960000D03*
D16*
X382040000Y-78160000D03*
D14*
X382040000Y-80660000D03*
X402428750Y-82951250D03*
D15*
X402428750Y-85451250D03*
D16*
X402428750Y-77651250D03*
D14*
X402428750Y-80151250D03*
D18*
X391503750Y-88576250D03*
D15*
X389003750Y-88576250D03*
D16*
X396803750Y-88576250D03*
D18*
X394303750Y-88576250D03*
X391156400Y-125488800D03*
D15*
X388656400Y-125488800D03*
D16*
X396456400Y-125488800D03*
D18*
X393956400Y-125488800D03*
D14*
X345278750Y-120932500D03*
D15*
X345278750Y-123432500D03*
D16*
X345278750Y-115632500D03*
D14*
X345278750Y-118132500D03*
X364328750Y-120932500D03*
D15*
X364328750Y-123432500D03*
D16*
X364328750Y-115632500D03*
D14*
X364328750Y-118132500D03*
X402828800Y-128082600D03*
D15*
X402828800Y-130582600D03*
D16*
X402828800Y-122782600D03*
D14*
X402828800Y-125282600D03*
X345278750Y-139982500D03*
D15*
X345278750Y-142482500D03*
D16*
X345278750Y-134682500D03*
D14*
X345278750Y-137182500D03*
X364328750Y-139982500D03*
D15*
X364328750Y-142482500D03*
D16*
X364328750Y-134682500D03*
D14*
X364328750Y-137182500D03*
D18*
X371472500Y-126676250D03*
D15*
X368972500Y-126676250D03*
D16*
X376772500Y-126676250D03*
D18*
X374272500Y-126676250D03*
D14*
X326228750Y-156651250D03*
D15*
X326228750Y-159151250D03*
D16*
X326228750Y-151351250D03*
D14*
X326228750Y-153851250D03*
D18*
X372453750Y-145726250D03*
D15*
X369953750Y-145726250D03*
D16*
X377753750Y-145726250D03*
D18*
X375253750Y-145726250D03*
D14*
X364328750Y-156651250D03*
D15*
X364328750Y-159151250D03*
D16*
X364328750Y-151351250D03*
D14*
X364328750Y-153851250D03*
X345278750Y-101882500D03*
D15*
X345278750Y-104382500D03*
D16*
X345278750Y-96582500D03*
D14*
X345278750Y-99082500D03*
X364328750Y-101882500D03*
D15*
X364328750Y-104382500D03*
D16*
X364328750Y-96582500D03*
D14*
X364328750Y-99082500D03*
D18*
X372572500Y-88576250D03*
D15*
X370072500Y-88576250D03*
D16*
X377872500Y-88576250D03*
D18*
X375372500Y-88576250D03*
D11*
X330173750Y-79051250D03*
D12*
X335253750Y-79051250D03*
D11*
X340333750Y-79051250D03*
D13*
X331443750Y-76511250D03*
X337793750Y-73971250D03*
D11*
X349223750Y-79051250D03*
D12*
X354303750Y-79051250D03*
D11*
X359383750Y-79051250D03*
D13*
X350493750Y-76511250D03*
X356843750Y-73971250D03*
D11*
X368273750Y-79051250D03*
D12*
X373353750Y-79051250D03*
D11*
X378433750Y-79051250D03*
D13*
X369543750Y-76511250D03*
X375893750Y-73971250D03*
D11*
X387323750Y-79051250D03*
D12*
X392403750Y-79051250D03*
D11*
X397483750Y-79051250D03*
D13*
X388593750Y-76511250D03*
X394943750Y-73971250D03*
D14*
X76197500Y-139982500D03*
D15*
X76197500Y-142482500D03*
D16*
X76197500Y-134682500D03*
D14*
X76197500Y-137182500D03*
X95247500Y-139982500D03*
D15*
X95247500Y-142482500D03*
D16*
X95247500Y-134682500D03*
D14*
X95247500Y-137182500D03*
D11*
X28475500Y-155751250D03*
D12*
X33555500Y-155751250D03*
D11*
X38635500Y-155751250D03*
D13*
X29745500Y-153211250D03*
X36095500Y-150671250D03*
D11*
X52288000Y-155751250D03*
D12*
X57368000Y-155751250D03*
D11*
X62448000Y-155751250D03*
D13*
X53558000Y-153211250D03*
X59908000Y-150671250D03*
D11*
X71338000Y-155751250D03*
D12*
X76418000Y-155751250D03*
D11*
X81498000Y-155751250D03*
D13*
X72608000Y-153211250D03*
X78958000Y-150671250D03*
D11*
X90388000Y-155751250D03*
D12*
X95468000Y-155751250D03*
D11*
X100548000Y-155751250D03*
D13*
X91658000Y-153211250D03*
X98008000Y-150671250D03*
D11*
X109438000Y-155751250D03*
D12*
X114518000Y-155751250D03*
D11*
X119598000Y-155751250D03*
D13*
X110708000Y-153211250D03*
X117058000Y-150671250D03*
D11*
X128488000Y-155751250D03*
D12*
X133568000Y-155751250D03*
D11*
X138648000Y-155751250D03*
D13*
X129758000Y-153211250D03*
X136108000Y-150671250D03*
D11*
X147538000Y-155751250D03*
D12*
X152618000Y-155751250D03*
D11*
X157698000Y-155751250D03*
D13*
X148808000Y-153211250D03*
X155158000Y-150671250D03*
D11*
X166588000Y-155751250D03*
D12*
X171668000Y-155751250D03*
D11*
X176748000Y-155751250D03*
D13*
X167858000Y-153211250D03*
X174208000Y-150671250D03*
D11*
X185638000Y-155751250D03*
D12*
X190718000Y-155751250D03*
D11*
X195798000Y-155751250D03*
D13*
X186908000Y-153211250D03*
X193258000Y-150671250D03*
D11*
X204688000Y-155751250D03*
D12*
X209768000Y-155751250D03*
D11*
X214848000Y-155751250D03*
D13*
X205958000Y-153211250D03*
X212308000Y-150671250D03*
D11*
X223738000Y-155751250D03*
D12*
X228818000Y-155751250D03*
D11*
X233898000Y-155751250D03*
D13*
X225008000Y-153211250D03*
X231358000Y-150671250D03*
D11*
X242788000Y-155751250D03*
D12*
X247868000Y-155751250D03*
D11*
X252948000Y-155751250D03*
D13*
X244058000Y-153211250D03*
X250408000Y-150671250D03*
D11*
X261838000Y-155751250D03*
D12*
X266918000Y-155751250D03*
D11*
X271998000Y-155751250D03*
D13*
X263108000Y-153211250D03*
X269458000Y-150671250D03*
D11*
X285650500Y-155751250D03*
D12*
X290730500Y-155751250D03*
D11*
X295810500Y-155751250D03*
D13*
X286920500Y-153211250D03*
X293270500Y-150671250D03*
D14*
X307000000Y-139340000D03*
D15*
X307000000Y-141840000D03*
D16*
X307000000Y-134040000D03*
D14*
X307000000Y-136540000D03*
D11*
X30856750Y-174801250D03*
D12*
X35936750Y-174801250D03*
D11*
X41016750Y-174801250D03*
D13*
X32126750Y-172261250D03*
X38476750Y-169721250D03*
D11*
X57050500Y-174801250D03*
D12*
X62130500Y-174801250D03*
D11*
X67210500Y-174801250D03*
D13*
X58320500Y-172261250D03*
X64670500Y-169721250D03*
D11*
X76100500Y-174801250D03*
D12*
X81180500Y-174801250D03*
D11*
X86260500Y-174801250D03*
D13*
X77370500Y-172261250D03*
X83720500Y-169721250D03*
D11*
X95150500Y-174801250D03*
D12*
X100230500Y-174801250D03*
D11*
X105310500Y-174801250D03*
D13*
X96420500Y-172261250D03*
X102770500Y-169721250D03*
D11*
X114200500Y-174801250D03*
D12*
X119280500Y-174801250D03*
D11*
X124360500Y-174801250D03*
D13*
X115470500Y-172261250D03*
X121820500Y-169721250D03*
D11*
X133250500Y-174801250D03*
D12*
X138330500Y-174801250D03*
D11*
X143410500Y-174801250D03*
D13*
X134520500Y-172261250D03*
X140870500Y-169721250D03*
D11*
X152300500Y-174801250D03*
D12*
X157380500Y-174801250D03*
D11*
X162460500Y-174801250D03*
D13*
X153570500Y-172261250D03*
X159920500Y-169721250D03*
D11*
X171350500Y-174801250D03*
D12*
X176430500Y-174801250D03*
D11*
X181510500Y-174801250D03*
D13*
X172620500Y-172261250D03*
X178970500Y-169721250D03*
D11*
X190400500Y-174801250D03*
D12*
X195480500Y-174801250D03*
D11*
X200560500Y-174801250D03*
D13*
X191670500Y-172261250D03*
X198020500Y-169721250D03*
D11*
X209450500Y-174801250D03*
D12*
X214530500Y-174801250D03*
D11*
X219610500Y-174801250D03*
D13*
X210720500Y-172261250D03*
X217070500Y-169721250D03*
D11*
X228500500Y-174801250D03*
D12*
X233580500Y-174801250D03*
D11*
X238660500Y-174801250D03*
D13*
X229770500Y-172261250D03*
X236120500Y-169721250D03*
D11*
X247550500Y-174801250D03*
D12*
X252630500Y-174801250D03*
D11*
X257710500Y-174801250D03*
D13*
X248820500Y-172261250D03*
X255170500Y-169721250D03*
D11*
X266600500Y-174801250D03*
D12*
X271680500Y-174801250D03*
D11*
X276760500Y-174801250D03*
D13*
X267870500Y-172261250D03*
X274220500Y-169721250D03*
D17*
X271680500Y-167816250D03*
D12*
X271680500Y-183056250D03*
D11*
X278506750Y-174801250D03*
D12*
X283586750Y-174801250D03*
D11*
X288666750Y-174801250D03*
D17*
X295493000Y-167816250D03*
D12*
X295493000Y-183056250D03*
D13*
X279776750Y-172261250D03*
X286126750Y-169721250D03*
D11*
X349223750Y-155251250D03*
D12*
X354303750Y-155251250D03*
D11*
X359383750Y-155251250D03*
D13*
X350493750Y-152711250D03*
X356843750Y-150171250D03*
D11*
X387323750Y-117151250D03*
D12*
X392403750Y-117151250D03*
D11*
X397483750Y-117151250D03*
D13*
X388593750Y-114611250D03*
X394943750Y-112071250D03*
D11*
X26094250Y-174801250D03*
D12*
X31174250Y-174801250D03*
D11*
X36254250Y-174801250D03*
D13*
X27364250Y-172261250D03*
X33714250Y-169721250D03*
D14*
X261833400Y-169789400D03*
D15*
X261833400Y-172289400D03*
D16*
X261833400Y-164489400D03*
D14*
X261833400Y-166989400D03*
X314322500Y-201895000D03*
D15*
X314322500Y-204395000D03*
D16*
X314322500Y-196595000D03*
D14*
X314322500Y-199095000D03*
X333372500Y-220945000D03*
D15*
X333372500Y-223445000D03*
D16*
X333372500Y-215645000D03*
D14*
X333372500Y-218145000D03*
X314322500Y-220945000D03*
D15*
X314322500Y-223445000D03*
D16*
X314322500Y-215645000D03*
D14*
X314322500Y-218145000D03*
X295272500Y-220945000D03*
D15*
X295272500Y-223445000D03*
D16*
X295272500Y-215645000D03*
D14*
X295272500Y-218145000D03*
X382040000Y-156270000D03*
D15*
X382040000Y-158770000D03*
D16*
X382040000Y-150970000D03*
D14*
X382040000Y-153470000D03*
X192010000Y-214510000D03*
D15*
X192010000Y-217010000D03*
D16*
X192010000Y-209210000D03*
D14*
X192010000Y-211710000D03*
X161925000Y-214193750D03*
D15*
X161925000Y-216693750D03*
D16*
X161925000Y-208893750D03*
D14*
X161925000Y-211393750D03*
X20130000Y-213520000D03*
D15*
X20130000Y-216020000D03*
D16*
X20130000Y-208220000D03*
D14*
X20130000Y-210720000D03*
X271510000Y-218350000D03*
D15*
X271510000Y-220850000D03*
D16*
X271510000Y-213050000D03*
D14*
X271510000Y-215550000D03*
D11*
X387323750Y-155251250D03*
D12*
X392403750Y-155251250D03*
D11*
X397483750Y-155251250D03*
D13*
X388593750Y-152711250D03*
X394943750Y-150171250D03*
D11*
X185633500Y-79751250D03*
D12*
X190713500Y-79751250D03*
D11*
X195793500Y-79751250D03*
D13*
X186903500Y-77211250D03*
X193253500Y-74671250D03*
D11*
X204683500Y-79751250D03*
D12*
X209763500Y-79751250D03*
D11*
X214843500Y-79751250D03*
D13*
X205953500Y-77211250D03*
X212303500Y-74671250D03*
D11*
X223733500Y-79751250D03*
D12*
X228813500Y-79751250D03*
D11*
X233893500Y-79751250D03*
D13*
X225003500Y-77211250D03*
X231353500Y-74671250D03*
D11*
X242783500Y-79751250D03*
D12*
X247863500Y-79751250D03*
D11*
X252943500Y-79751250D03*
D13*
X244053500Y-77211250D03*
X250403500Y-74671250D03*
D14*
X200022500Y-82713750D03*
D15*
X200022500Y-85213750D03*
D16*
X200022500Y-77413750D03*
D14*
X200022500Y-79913750D03*
X219072500Y-82832500D03*
D15*
X219072500Y-85332500D03*
D16*
X219072500Y-77532500D03*
D14*
X219072500Y-80032500D03*
X238122500Y-82713750D03*
D15*
X238122500Y-85213750D03*
D16*
X238122500Y-77413750D03*
D14*
X238122500Y-79913750D03*
X257172500Y-82713750D03*
D15*
X257172500Y-85213750D03*
D16*
X257172500Y-77413750D03*
D14*
X257172500Y-79913750D03*
X286447500Y-82713750D03*
D15*
X286447500Y-85213750D03*
D16*
X286447500Y-77413750D03*
D14*
X286447500Y-79913750D03*
X200022500Y-101882500D03*
D15*
X200022500Y-104382500D03*
D16*
X200022500Y-96582500D03*
D14*
X200022500Y-99082500D03*
X219072500Y-101882500D03*
D15*
X219072500Y-104382500D03*
D16*
X219072500Y-96582500D03*
D14*
X219072500Y-99082500D03*
X238122500Y-101882500D03*
D15*
X238122500Y-104382500D03*
D16*
X238122500Y-96582500D03*
D14*
X238122500Y-99082500D03*
X257172500Y-101882500D03*
D15*
X257172500Y-104382500D03*
D16*
X257172500Y-96582500D03*
D14*
X257172500Y-99082500D03*
D12*
X284856750Y-153338250D03*
X284856750Y-177214250D03*
D11*
X288031750Y-165276250D03*
D12*
X293111750Y-165276250D03*
D11*
X298191750Y-165276250D03*
D17*
X300096750Y-153338250D03*
X300096750Y-177214250D03*
D13*
X289301750Y-162736250D03*
X295651750Y-160196250D03*
D14*
X304797500Y-178082500D03*
D15*
X304797500Y-180582500D03*
D16*
X304797500Y-172782500D03*
D14*
X304797500Y-175282500D03*
D18*
X372453750Y-107626250D03*
D15*
X369953750Y-107626250D03*
D16*
X377753750Y-107626250D03*
D18*
X375253750Y-107626250D03*
X243180000Y-221870000D03*
D15*
X240680000Y-221870000D03*
D16*
X248480000Y-221870000D03*
D18*
X245980000Y-221870000D03*
D19*
X294980000Y-87530000D03*
D20*
X297270000Y-87530000D03*
D19*
X305070000Y-87490000D03*
D20*
X307360000Y-87490000D03*
D19*
X315230000Y-87490000D03*
D20*
X317520000Y-87490000D03*
D11*
X299932000Y-218330000D03*
D12*
X305012000Y-218330000D03*
D11*
X310092000Y-218330000D03*
D13*
X301202000Y-215790000D03*
X307552000Y-213250000D03*
D11*
X28475790Y-212901250D03*
D12*
X33555790Y-212901250D03*
D11*
X38635790Y-212901250D03*
D13*
X29745790Y-210361250D03*
X36095790Y-207821250D03*
D17*
X85949650Y-205916260D03*
D12*
X85949650Y-221156260D03*
D11*
X130869550Y-212901260D03*
D12*
X135949550Y-212901260D03*
D11*
X141029550Y-212901260D03*
D17*
X185949450Y-205916260D03*
D12*
X185949450Y-221156260D03*
D13*
X132139550Y-210361260D03*
X138489550Y-207821260D03*
D11*
X387323750Y-98101250D03*
D12*
X392403750Y-98101250D03*
D11*
X397483750Y-98101250D03*
D13*
X388593750Y-95561250D03*
X394943750Y-93021250D03*
D11*
X26094500Y-212901250D03*
D12*
X31174500Y-212901250D03*
D11*
X36254500Y-212901250D03*
D13*
X27364500Y-210361250D03*
X33714500Y-207821250D03*
D14*
X95290000Y-215510000D03*
D15*
X95290000Y-218010000D03*
D16*
X95290000Y-210210000D03*
D14*
X95290000Y-212710000D03*
D17*
X100237100Y-205916370D03*
D12*
X100237100Y-221156370D03*
D11*
X145157000Y-212901370D03*
D12*
X150237000Y-212901370D03*
D11*
X155317000Y-212901370D03*
D17*
X200236900Y-205916370D03*
D12*
X200236900Y-221156370D03*
D13*
X146427000Y-210361370D03*
X152777000Y-207821370D03*
D11*
X23713300Y-212901250D03*
D12*
X28793300Y-212901250D03*
D11*
X33873300Y-212901250D03*
D13*
X24983300Y-210361250D03*
X31333300Y-207821250D03*
D14*
X214310000Y-197132500D03*
D15*
X214310000Y-199632500D03*
D16*
X214310000Y-191832500D03*
D14*
X214310000Y-194332500D03*
D11*
X202307040Y-212901370D03*
D12*
X207387040Y-212901370D03*
D11*
X212467040Y-212901370D03*
D13*
X203577040Y-210361370D03*
X209927040Y-207821370D03*
D17*
X85943300Y-205916294D03*
D12*
X85943300Y-221156294D03*
D11*
X138013300Y-212901294D03*
D12*
X143093300Y-212901294D03*
D11*
X148173300Y-212901294D03*
D17*
X200243300Y-205916294D03*
D12*
X200243300Y-221156294D03*
D13*
X139283300Y-210361294D03*
X145633300Y-207821294D03*
D11*
X226119530Y-212901329D03*
D12*
X231199530Y-212901329D03*
D11*
X236279530Y-212901329D03*
D13*
X227389530Y-210361329D03*
X233739530Y-207821329D03*
D11*
X42763300Y-212901250D03*
D12*
X47843300Y-212901250D03*
D11*
X52923300Y-212901250D03*
D13*
X44033300Y-210361250D03*
X50383300Y-207821250D03*
D11*
X57050780Y-212901250D03*
D12*
X62130780Y-212901250D03*
D11*
X67210780Y-212901250D03*
D13*
X58320780Y-210361250D03*
X64670780Y-207821250D03*
D11*
X73719490Y-212901290D03*
D12*
X78799490Y-212901290D03*
D11*
X83879490Y-212901290D03*
D13*
X74989490Y-210361290D03*
X81339490Y-207821290D03*
D11*
X49906980Y-212901250D03*
D12*
X54986980Y-212901250D03*
D11*
X60066980Y-212901250D03*
D13*
X51176980Y-210361250D03*
X57526980Y-207821250D03*
D14*
X92150000Y-215500000D03*
D15*
X92150000Y-218000000D03*
D16*
X92150000Y-210200000D03*
D14*
X92150000Y-212700000D03*
D11*
X61813300Y-212901450D03*
D12*
X66893300Y-212901450D03*
D11*
X71973300Y-212901450D03*
D13*
X63083300Y-210361450D03*
X69433300Y-207821450D03*
D11*
X214213250Y-212901330D03*
D12*
X219293250Y-212901330D03*
D11*
X224373250Y-212901330D03*
D13*
X215483250Y-210361330D03*
X221833250Y-207821330D03*
D11*
X218975803Y-212901270D03*
D12*
X224055803Y-212901270D03*
D11*
X229135803Y-212901270D03*
D13*
X220245803Y-210361270D03*
X226595803Y-207821270D03*
D11*
X233263250Y-212901260D03*
D12*
X238343250Y-212901260D03*
D11*
X243423250Y-212901260D03*
D13*
X234533250Y-210361260D03*
X240883250Y-207821260D03*
D11*
X245169450Y-212901330D03*
D12*
X250249450Y-212901330D03*
D11*
X255329450Y-212901330D03*
D13*
X246439450Y-210361330D03*
X252789450Y-207821330D03*
D11*
X247550800Y-212901330D03*
D12*
X252630800Y-212901330D03*
D11*
X257710800Y-212901330D03*
D13*
X248820800Y-210361330D03*
X255170800Y-207821330D03*
D11*
X252313250Y-212901336D03*
D12*
X257393250Y-212901336D03*
D11*
X262473250Y-212901336D03*
D13*
X253583250Y-210361336D03*
X259933250Y-207821336D03*
D11*
X368273750Y-155251250D03*
D12*
X373353750Y-155251250D03*
D11*
X378433750Y-155251250D03*
D13*
X369543750Y-152711250D03*
X375893750Y-150171250D03*
D11*
X280882000Y-218329700D03*
D12*
X285962000Y-218329700D03*
D11*
X291042000Y-218329700D03*
D13*
X282152000Y-215789700D03*
X288502000Y-213249700D03*
D11*
X318982000Y-218330000D03*
D12*
X324062000Y-218330000D03*
D11*
X329142000Y-218330000D03*
D13*
X320252000Y-215790000D03*
X326602000Y-213250000D03*
D11*
X195163400Y-212901275D03*
D12*
X200243400Y-212901275D03*
D11*
X205323400Y-212901275D03*
D13*
X196433400Y-210361275D03*
X202783400Y-207821275D03*
D14*
X317610000Y-80210000D03*
D21*
X317610000Y-84130000D03*
X317620000Y-73410000D03*
D14*
X317610000Y-77410000D03*
D17*
X85942000Y-205917000D03*
D12*
X85942000Y-221157000D03*
D11*
X128487000Y-212902000D03*
D12*
X133567000Y-212902000D03*
D11*
X138647000Y-212902000D03*
D17*
X181192000Y-205917000D03*
D12*
X181192000Y-221157000D03*
D13*
X129757000Y-210362000D03*
X136107000Y-207822000D03*
D14*
X189880000Y-214450000D03*
D15*
X189880000Y-216950000D03*
D16*
X189880000Y-209150000D03*
D14*
X189880000Y-211650000D03*
X307390000Y-80050000D03*
D21*
X307390000Y-83970000D03*
X307400000Y-73250000D03*
D14*
X307390000Y-77250000D03*
X297370000Y-79980000D03*
D21*
X297370000Y-83900000D03*
X297380000Y-73180000D03*
D14*
X297370000Y-77180000D03*
D22*
X291010000Y-83040000D03*
D23*
X291010000Y-80500000D03*
X291010000Y-77960000D03*
X291010000Y-75420000D03*
X291010000Y-72880000D03*
D24*
X27510000Y-116370000D03*
D25*
X317900000Y-117440000D03*
X301450000Y-117340000D03*
D26*
X118930000Y-116030000D03*
X211190000Y-116180000D03*
D27*
X301900000Y-103420000D03*
X301900000Y-102400000D03*
D28*
X272220000Y-100250000D03*
X271260000Y-100250000D03*
D29*
X299220000Y-98570000D03*
X299220000Y-97610000D03*
D30*
X301880000Y-93620000D03*
X301880000Y-94640000D03*
D31*
X294990000Y-96270000D03*
X294990000Y-95320000D03*
X294990000Y-94370000D03*
X297265000Y-94370000D03*
X297265000Y-95320000D03*
X297265000Y-96270000D03*
D32*
X271757500Y-97747500D03*
X271757500Y-97247500D03*
X271757500Y-96747500D03*
X271757500Y-96247500D03*
X271757500Y-95747500D03*
X271757500Y-95247500D03*
X271757500Y-94747500D03*
X271757500Y-94247500D03*
X271757500Y-93747500D03*
X271757500Y-93247500D03*
X271757500Y-92747500D03*
X271757500Y-92247500D03*
D33*
X273170000Y-90835000D03*
X273670000Y-90835000D03*
X274170000Y-90835000D03*
X274670000Y-90835000D03*
X275170000Y-90835000D03*
X275670000Y-90835000D03*
X276170000Y-90835000D03*
X276670000Y-90835000D03*
X277170000Y-90835000D03*
X277670000Y-90835000D03*
X278170000Y-90835000D03*
X278670000Y-90835000D03*
D32*
X280082500Y-92247500D03*
X280082500Y-92747500D03*
X280082500Y-93247500D03*
X280082500Y-93747500D03*
X280082500Y-94247500D03*
X280082500Y-94747500D03*
X280082500Y-95247500D03*
X280082500Y-95747500D03*
X280082500Y-96247500D03*
X280082500Y-96747500D03*
X280082500Y-97247500D03*
X280082500Y-97747500D03*
D33*
X278670000Y-99160000D03*
X278170000Y-99160000D03*
X277670000Y-99160000D03*
X277170000Y-99160000D03*
X276670000Y-99160000D03*
X276170000Y-99160000D03*
X275670000Y-99160000D03*
X275170000Y-99160000D03*
X274670000Y-99160000D03*
X274170000Y-99160000D03*
X273670000Y-99160000D03*
X273170000Y-99160000D03*
D28*
X280543500Y-99714500D03*
X279583500Y-99714500D03*
X271653500Y-98694500D03*
X270693500Y-98694500D03*
D34*
X305200000Y-95630000D03*
X305200000Y-101410000D03*
D35*
X303755000Y-95270000D03*
X303755000Y-96070000D03*
D36*
X303755000Y-97270000D03*
X303755000Y-98270000D03*
X303755000Y-98770000D03*
X303755000Y-99770000D03*
D35*
X303755000Y-100970000D03*
X303755000Y-101770000D03*
X303755000Y-101770000D03*
X303755000Y-100970000D03*
D36*
X303755000Y-100270000D03*
X303755000Y-99270000D03*
X303755000Y-97770000D03*
X303755000Y-96770000D03*
D35*
X303755000Y-96070000D03*
X303755000Y-95270000D03*
D37*
X308850000Y-94200000D03*
D38*
X304670000Y-94200000D03*
D37*
X308850000Y-102840000D03*
D38*
X304670000Y-102840000D03*
D39*
X268600000Y-92970000D03*
X269560000Y-92970000D03*
D28*
X281150000Y-91300000D03*
X280190000Y-91300000D03*
D40*
X324160000Y-73540000D03*
D41*
X322160000Y-73540000D03*
D42*
X295372500Y-103190000D03*
X295372500Y-101290000D03*
X297247500Y-102240000D03*
D43*
X265830000Y-92430000D03*
X264810000Y-92430000D03*
D44*
X273110000Y-110180000D03*
X273110000Y-109530000D03*
X273110000Y-108880000D03*
X273110000Y-108230000D03*
X273110000Y-107580000D03*
X273110000Y-106930000D03*
X273110000Y-106280000D03*
X273110000Y-105630000D03*
X273110000Y-104980000D03*
X273110000Y-104330000D03*
X273110000Y-103680000D03*
X273110000Y-103030000D03*
X280310000Y-103030000D03*
X280310000Y-103680000D03*
X280310000Y-104330000D03*
X280310000Y-104980000D03*
X280310000Y-105630000D03*
X280310000Y-106280000D03*
X280310000Y-106930000D03*
X280310000Y-107580000D03*
X280310000Y-108230000D03*
X280310000Y-108880000D03*
X280310000Y-109530000D03*
X280310000Y-110180000D03*
D28*
X281143500Y-98694500D03*
X280183500Y-98694500D03*
D45*
X295452500Y-98560000D03*
X297027500Y-98560000D03*
D39*
X268950000Y-94030000D03*
X269910000Y-94030000D03*
D28*
X280560000Y-90270000D03*
X279600000Y-90270000D03*
D40*
X308770000Y-160950000D03*
D41*
X308770000Y-158950000D03*
X308770000Y-156950000D03*
X308770000Y-154950000D03*
X308770000Y-152950000D03*
D46*
X293620000Y-101290000D03*
X293620000Y-102250000D03*
D43*
X265840000Y-93490000D03*
X264820000Y-93490000D03*
M02*
