M48
METRIC,TZ
T1C0.400
T2C0.600
T3C0.762
T4C0.800
T5C0.900
T6C1.000
T7C1.470
%
G90
G05
T1
X28730Y-90770
X60510Y-88900
X85780Y-89670
X121710Y-190600
X135450Y-98910
X162260Y-118270
X169780Y-177650
X176034Y-209550
X177440Y-142438
X178140Y-80660
X200050Y-87140
X212788Y-205990
X212810Y-204990
X213390Y-142100
X213390Y-144900
X238150Y-86820
X251310Y-141810
X251310Y-144690
X255240Y-130710
X263970Y-93680
X264140Y-112410
X265124Y-70631
X265287Y-113667
X266000Y-90860
X266050Y-98150
X266130Y-70660
X266550Y-179480
X266691Y-111061
X266705Y-188046
X266723Y-93750
X266727Y-92553
X267120Y-104255
X267130Y-70650
X267420Y-187310
X268170Y-70640
X268455Y-91405
X268850Y-98220
X268860Y-101530
X268860Y-104255
X268995Y-187295
X269170Y-70660
X270050Y-65510
X270074Y-66578
X270100Y-62440
X270110Y-63564
X270110Y-67640
X270120Y-69930
X270160Y-68740
X270840Y-188046
X271550Y-179560
X271630Y-101980
X271690Y-204240
X273490Y-95360
X273720Y-94070
X274445Y-102190
X274532Y-101051
X274930Y-97380
X274945Y-87840
X275445Y-102190
X275920Y-94998
X276192Y-85268
X276610Y-107330
X276769Y-96569
X276945Y-92760
X277810Y-86930
X277950Y-89370
X278130Y-95470
X278215Y-100626
X278570Y-104600
X278694Y-97823
X278720Y-92270
X278736Y-96823
X278980Y-101270
X280020Y-119860
X280410Y-88620
X282118Y-84822
X282454Y-101495
X283060Y-94998
X283410Y-104100
X284270Y-97600
X285740Y-92998
X285750Y-93998
X285770Y-94998
X286990Y-88210
X287310Y-103140
X287965Y-97281
X288060Y-89650
X288950Y-97110
X290550Y-99740
X290850Y-86030
X291190Y-94640
X291610Y-103780
X291620Y-102410
X293400Y-90300
X293470Y-95340
X294030Y-85240
X299220Y-100170
X300390Y-97610
X300540Y-101390
X300620Y-99960
X300840Y-95220
X302080Y-100940
X302090Y-96070
X302910Y-94180
X302990Y-87400
X311960Y-86040
X323960Y-75100
X326690Y-70545
X326700Y-71560
X404565Y-161094
T3
X297370Y-83900
X297380Y-73180
X307390Y-83970
X307400Y-73250
X317610Y-84130
X317620Y-73410
T4
X308770Y-152950
X308770Y-154950
X308770Y-156950
X308770Y-158950
X308770Y-160950
X322160Y-73540
X324160Y-73540
T5
X294980Y-87530
X297270Y-87530
X305070Y-87490
X307360Y-87490
X315230Y-87490
X317520Y-87490
T6
X20130Y-208220
X20130Y-216020
X20300Y-189140
X20300Y-196940
X39090Y-134670
X39090Y-142470
X47050Y-80020
X47050Y-87820
X47623Y-153732
X47623Y-161533
X47623Y-172783
X47623Y-180583
X57148Y-134683
X57148Y-142482
X61910Y-191833
X61910Y-199633
X66673Y-153732
X66673Y-161533
X71435Y-172783
X71435Y-180583
X76197Y-77533
X76197Y-85333
X76197Y-96701
X76197Y-104501
X76197Y-134683
X76197Y-142482
X80960Y-191833
X80960Y-199633
X85723Y-153732
X85723Y-161533
X90485Y-172783
X90485Y-180583
X92150Y-210200
X92150Y-218000
X95248Y-77533
X95248Y-85333
X95248Y-96701
X95248Y-104501
X95248Y-134683
X95248Y-142482
X95290Y-210210
X95290Y-218010
X100010Y-191833
X100010Y-199633
X104773Y-153732
X104773Y-161533
X109535Y-172783
X109535Y-180583
X114298Y-77414
X114298Y-85214
X114298Y-96701
X114298Y-104501
X114298Y-134683
X114298Y-142482
X119060Y-191833
X119060Y-199633
X123823Y-153732
X123823Y-161533
X128585Y-172783
X128585Y-180583
X133348Y-77414
X133348Y-85214
X133348Y-96701
X133348Y-104501
X133348Y-134683
X133348Y-142482
X138110Y-191833
X138110Y-199633
X142873Y-153732
X142873Y-161533
X147635Y-172783
X147635Y-180583
X152398Y-77414
X152398Y-85214
X152398Y-96701
X152398Y-104501
X152398Y-134683
X152398Y-142482
X157160Y-191833
X157160Y-199633
X161923Y-153732
X161923Y-161533
X161925Y-208894
X161925Y-216694
X166685Y-172783
X166685Y-180583
X171448Y-77414
X171448Y-85214
X171448Y-96583
X171448Y-104382
X171448Y-134683
X171448Y-142482
X176210Y-191833
X176210Y-199633
X180973Y-153732
X180973Y-161533
X185735Y-172783
X185735Y-180583
X189880Y-209150
X189880Y-216950
X190498Y-134683
X190498Y-142482
X192010Y-209210
X192010Y-217010
X195260Y-191833
X195260Y-199633
X200023Y-77414
X200023Y-85214
X200023Y-96583
X200023Y-104382
X200023Y-153732
X200023Y-161533
X204785Y-172783
X204785Y-180583
X209548Y-134683
X209548Y-142482
X214310Y-191833
X214310Y-199633
X219073Y-77533
X219073Y-85333
X219073Y-96583
X219073Y-104382
X219073Y-153732
X219073Y-161533
X223835Y-172783
X223835Y-180583
X228598Y-134683
X228598Y-142482
X233360Y-191833
X233360Y-199633
X238123Y-77414
X238123Y-85214
X238123Y-96583
X238123Y-104382
X238123Y-153732
X238123Y-161533
X240680Y-221870
X242885Y-172783
X242885Y-180583
X247648Y-134683
X247648Y-142482
X248480Y-221870
X252232Y-193482
X252232Y-201282
X252334Y-183121
X252334Y-190921
X257173Y-77414
X257173Y-85214
X257173Y-96583
X257173Y-104382
X257173Y-153732
X257173Y-161533
X261833Y-164489
X261833Y-172289
X261833Y-174856
X261833Y-182656
X266698Y-134683
X266698Y-142482
X271510Y-213050
X271510Y-220850
X276222Y-153732
X276222Y-161533
X286448Y-77414
X286448Y-85214
X290510Y-189570
X290510Y-197370
X291010Y-72880
X291010Y-75420
X291010Y-77960
X291010Y-80500
X291010Y-83040
X295273Y-215645
X295273Y-223445
X304798Y-153732
X304798Y-161533
X304798Y-172783
X304798Y-180583
X307000Y-134040
X307000Y-141840
X309880Y-134050
X309880Y-141850
X314323Y-196595
X314323Y-204395
X314323Y-215645
X314323Y-223445
X326229Y-151351
X326229Y-159151
X333373Y-215645
X333373Y-223445
X345279Y-77533
X345279Y-85333
X345279Y-96583
X345279Y-104382
X345279Y-115632
X345279Y-123432
X345279Y-134683
X345279Y-142482
X364329Y-77533
X364329Y-85333
X364329Y-96583
X364329Y-104382
X364329Y-115632
X364329Y-123432
X364329Y-134683
X364329Y-142482
X364329Y-151351
X364329Y-159151
X368972Y-126676
X369954Y-107626
X369954Y-145726
X370073Y-88576
X376773Y-126676
X377754Y-107626
X377754Y-145726
X377873Y-88576
X382040Y-78160
X382040Y-85960
X382040Y-150970
X382040Y-158770
X388656Y-125489
X389004Y-88576
X396456Y-125489
X396804Y-88576
X402429Y-77651
X402429Y-85451
X402829Y-122783
X402829Y-130583
T7
X24983Y-134161
X24983Y-210361
X24985Y-77211
X27364Y-172261
X27364Y-191311
X27365Y-210361
X29745Y-153211
X29746Y-210361
X31333Y-131621
X31333Y-207821
X31336Y-74671
X32127Y-172261
X33714Y-169721
X33714Y-188771
X33715Y-207821
X36096Y-150671
X36096Y-207821
X36889Y-191311
X38477Y-169721
X43239Y-188771
X44033Y-134161
X44033Y-210361
X48796Y-191311
X50383Y-131621
X50383Y-207821
X51177Y-210361
X53558Y-153211
X55145Y-188771
X57527Y-207821
X58320Y-172261
X58321Y-210361
X59908Y-150671
X63081Y-77211
X63081Y-96261
X63083Y-134161
X63083Y-210361
X64671Y-169721
X64671Y-207821
X67846Y-191311
X69431Y-74671
X69431Y-93721
X69433Y-131621
X69433Y-207821
X72608Y-153211
X74196Y-188771
X74989Y-210361
X77371Y-172261
X78958Y-150671
X81339Y-207821
X82131Y-77211
X82131Y-96261
X82133Y-134161
X83721Y-169721
X86896Y-191311
X88481Y-74671
X88481Y-93721
X88483Y-131621
X91658Y-153211
X93246Y-188771
X96421Y-172261
X98008Y-150671
X101181Y-77211
X101181Y-96261
X101183Y-134161
X102771Y-169721
X105946Y-191311
X107531Y-74671
X107531Y-93721
X107533Y-131621
X110708Y-153211
X112296Y-188771
X115471Y-172261
X117058Y-150671
X120231Y-77211
X120231Y-96261
X120233Y-134161
X121821Y-169721
X124996Y-191311
X126581Y-74671
X126581Y-93721
X126583Y-131621
X129757Y-210362
X129758Y-153211
X131346Y-188771
X132140Y-210361
X134521Y-172261
X136107Y-207822
X136108Y-150671
X138490Y-207821
X139281Y-77211
X139281Y-96261
X139283Y-134161
X139283Y-210361
X140871Y-169721
X144046Y-191311
X145631Y-74671
X145631Y-93721
X145633Y-131621
X145633Y-207821
X146427Y-210361
X148808Y-153211
X150396Y-188771
X152777Y-207821
X153571Y-172261
X155158Y-150671
X158331Y-77211
X158331Y-96261
X158333Y-134161
X159921Y-169721
X163096Y-191311
X164681Y-74671
X164681Y-93721
X164683Y-131621
X167858Y-153211
X169446Y-188771
X172621Y-172261
X174208Y-150671
X177383Y-134161
X178971Y-169721
X182146Y-191311
X183733Y-131621
X186904Y-77211
X186904Y-96261
X186908Y-153211
X188496Y-188771
X191671Y-172261
X193254Y-74671
X193254Y-93721
X193258Y-150671
X196433Y-134161
X196433Y-210361
X198021Y-169721
X201196Y-191311
X202783Y-131621
X202783Y-207821
X203577Y-210361
X205954Y-77211
X205954Y-96261
X205958Y-153211
X207546Y-188771
X209927Y-207821
X210721Y-172261
X212304Y-74671
X212304Y-93721
X212308Y-150671
X215483Y-134161
X215483Y-210361
X217071Y-169721
X220246Y-191311
X220246Y-210361
X221833Y-131621
X221833Y-207821
X225004Y-77211
X225004Y-96261
X225008Y-153211
X226596Y-188771
X226596Y-207821
X227390Y-210361
X229771Y-172261
X231354Y-74671
X231354Y-93721
X231358Y-150671
X233740Y-207821
X234533Y-134161
X234533Y-210361
X236121Y-169721
X239296Y-191311
X240883Y-131621
X240883Y-207821
X244054Y-77211
X244054Y-96261
X244058Y-153211
X245646Y-188771
X246439Y-210361
X248821Y-172261
X248821Y-210361
X250404Y-74671
X250404Y-93721
X250408Y-150671
X252789Y-207821
X253583Y-134161
X253583Y-210361
X255171Y-169721
X255171Y-207821
X258346Y-191311
X259933Y-131621
X259933Y-207821
X263108Y-153211
X264696Y-188771
X267871Y-172261
X267871Y-191311
X269458Y-150671
X272633Y-134161
X272635Y-77211
X274221Y-169721
X274221Y-188771
X277396Y-191311
X278983Y-131621
X278985Y-74671
X279777Y-172261
X282152Y-215790
X282158Y-134161
X283746Y-188771
X286127Y-169721
X286921Y-153211
X288502Y-213250
X288508Y-131621
X289302Y-162736
X291683Y-134161
X293271Y-150671
X295652Y-160196
X298033Y-131621
X301202Y-196740
X301202Y-215790
X307552Y-194200
X307552Y-213250
X320252Y-215790
X326602Y-213250
X331444Y-76511
X331444Y-95561
X331444Y-114611
X331444Y-133661
X331444Y-152711
X337794Y-73971
X337794Y-93021
X337794Y-112071
X337794Y-131121
X337794Y-150171
X340969Y-152711
X347319Y-150171
X350494Y-76511
X350494Y-95561
X350494Y-114611
X350494Y-133661
X350494Y-152711
X356844Y-73971
X356844Y-93021
X356844Y-112071
X356844Y-131121
X356844Y-150171
X369544Y-76511
X369544Y-95561
X369544Y-114611
X369544Y-133661
X369544Y-152711
X375894Y-73971
X375894Y-93021
X375894Y-112071
X375894Y-131121
X375894Y-150171
X388594Y-76511
X388594Y-95561
X388594Y-105086
X388594Y-114611
X388594Y-133661
X388594Y-143186
X388594Y-152711
X394944Y-73971
X394944Y-93021
X394944Y-102546
X394944Y-112071
X394944Y-131121
X394944Y-140646
X394944Y-150171
T2
X304120Y-94200G85X305220Y-94200
G05
X304120Y-102840G85X305220Y-102840
G05
X308550Y-94200G85X309150Y-94200
G05
X308550Y-102840G85X309150Y-102840
G05
M30
